<?xml version="1.0" standalone="no"?>
<!DOCTYPE svg PUBLIC "-//W3C//DTD SVG 20010904//EN"
 "http://www.w3.org/TR/2001/REC-SVG-20010904/DTD/svg10.dtd">
<svg version="1.0" xmlns="http://www.w3.org/2000/svg"
 width="2500.000000pt" height="2500.000000pt" viewBox="0 0 2500.000000 2500.000000"
 preserveAspectRatio="xMidYMid meet">

<g transform="translate(0.000000,2500.000000) scale(0.100000,-0.100000)"
fill="#000000" stroke="none">
<path d="M12180 23864 c-25 -2 -103 -9 -175 -14 -209 -17 -442 -52 -635 -94
-109 -24 -130 -30 -130 -37 0 -4 -16 -7 -35 -7 -20 0 -46 -7 -60 -16 -13 -9
-35 -16 -49 -16 -14 0 -27 -4 -31 -9 -3 -6 -13 -9 -23 -9 -47 2 -107 -43 -93
-70 4 -9 6 -23 3 -31 -2 -8 0 -11 5 -8 5 3 9 -9 9 -28 0 -26 -4 -32 -17 -30
-26 5 -38 -15 -35 -63 1 -24 -2 -45 -6 -49 -5 -3 -7 -11 -4 -19 3 -7 1 -16 -5
-20 -6 -4 -6 -11 2 -20 6 -8 8 -14 4 -14 -4 0 -3 -6 4 -13 8 -10 7 -17 -1 -25
-9 -9 -9 -15 0 -24 7 -7 12 -16 12 -22 0 -6 -5 -5 -12 2 -7 7 -17 12 -23 12
-5 0 -4 -4 4 -9 17 -11 22 -51 7 -51 -6 0 -4 -5 5 -10 14 -8 16 -23 10 -73 -1
-5 -7 -5 -13 -1 -10 5 -10 4 -1 -6 6 -7 9 -20 6 -29 -4 -9 -3 -13 1 -10 4 4 9
17 11 29 3 13 10 27 17 32 10 6 10 8 -1 8 -17 0 -9 11 11 14 7 1 20 6 28 11
10 5 9 1 -3 -12 -13 -14 -15 -23 -7 -28 8 -5 8 -11 1 -19 -6 -7 -8 -16 -4 -20
12 -12 12 -35 0 -33 -7 1 -11 -8 -11 -20 1 -12 -1 -21 -5 -20 -3 1 -7 -2 -9
-8 -2 -12 21 -14 29 -3 3 5 5 -25 4 -66 0 -42 -4 -78 -8 -82 -4 -4 -2 -13 4
-20 7 -8 6 -14 -2 -20 -7 -4 -9 -3 -5 4 3 6 2 13 -4 17 -5 3 -10 1 -10 -4 0
-6 -4 -11 -9 -11 -5 0 -8 13 -6 30 3 25 2 28 -9 17 -9 -8 -11 -16 -5 -24 7 -7
6 -14 -1 -18 -8 -5 -8 -10 0 -20 8 -10 7 -16 -6 -23 -14 -8 -14 -10 -1 -15 9
-3 14 -14 12 -24 -2 -10 -4 -22 -4 -26 -1 -5 -6 -5 -13 -1 -6 4 -4 -3 5 -15
17 -25 12 -55 -7 -44 -7 4 -7 1 1 -9 7 -8 10 -18 6 -21 -3 -4 2 -16 12 -27 24
-26 51 -9 33 20 -11 17 -13 17 -25 2 -11 -15 -12 -14 -9 8 3 14 5 29 5 33 1
13 26 2 27 -11 1 -7 2 -17 3 -23 0 -5 5 -8 10 -5 8 5 8 -15 1 -34 -1 -3 -2 -9
-1 -13 1 -5 -3 -6 -9 -2 -6 4 -10 -8 -10 -30 0 -20 4 -34 8 -31 5 3 9 -2 9
-10 0 -9 -4 -11 -10 -5 -5 5 -16 7 -25 4 -11 -5 -13 -3 -6 8 17 28 14 56 -8
75 -13 10 -18 12 -11 5 6 -7 9 -21 6 -30 -4 -14 -3 -14 7 -1 9 13 11 12 7 -5
-2 -11 -9 -19 -17 -17 -10 2 -11 0 -2 -11 9 -10 9 -17 -1 -27 -9 -10 -9 -11 1
-6 6 4 13 2 13 -3 1 -6 2 -17 3 -23 1 -7 -4 -20 -12 -30 -9 -11 -10 -18 -2
-23 6 -3 9 -1 8 6 -2 6 3 14 11 17 9 3 11 0 6 -8 -5 -9 -4 -11 3 -6 9 5 9 13
1 28 -9 16 -8 19 3 12 11 -6 11 -5 0 8 -9 11 -10 18 -2 23 5 3 10 -1 10 -10 0
-10 5 -13 13 -9 6 4 9 4 5 -1 -4 -4 -2 -15 5 -24 10 -14 10 -14 -5 -3 -15 12
-16 9 -13 -30 4 -56 4 -56 15 -38 6 9 10 10 10 3 0 -6 -5 -15 -10 -18 -6 -4
-8 -11 -4 -16 3 -5 10 -6 17 -2 6 3 1 -7 -11 -24 -25 -35 -29 -51 -9 -34 10 8
14 7 14 -4 0 -7 -3 -13 -6 -12 -3 1 -6 -2 -6 -8 0 -5 3 -9 6 -8 11 4 3 -47 -9
-59 -19 -19 -14 -32 6 -17 15 13 16 12 3 -3 -7 -10 -18 -18 -23 -18 -5 0 -8 8
-6 18 1 9 -1 22 -5 29 -4 6 -3 14 3 18 5 3 10 -1 10 -10 0 -9 4 -14 9 -11 5 4
8 14 6 24 -2 9 -4 19 -4 21 -1 3 -11 -5 -24 -17 -13 -12 -26 -20 -28 -18 -14
14 0 -47 15 -62 14 -16 14 -21 3 -30 -8 -7 -16 -10 -19 -7 -2 3 -5 -1 -5 -9 0
-8 3 -14 6 -13 3 1 6 -2 6 -8 0 -5 -4 -9 -9 -7 -5 2 -4 -3 2 -11 6 -7 10 -27
8 -45 -3 -23 -1 -29 10 -25 8 3 14 9 14 15 0 5 -5 6 -12 2 -8 -5 -9 -2 -5 10
4 10 7 22 7 27 0 6 4 8 9 5 5 -4 8 2 6 11 -2 10 -4 18 -5 18 -7 0 -6 36 1 41
5 3 6 11 3 17 -4 7 -4 9 1 5 4 -4 13 -3 20 2 8 7 12 5 12 -5 0 -7 -5 -13 -11
-12 -6 1 -12 -11 -14 -27 -2 -17 0 -26 7 -22 5 4 8 14 5 24 -5 14 -4 15 5 2 7
-11 6 -19 -6 -32 -9 -10 -13 -18 -8 -18 4 0 2 -7 -5 -16 -11 -12 -11 -15 1
-12 8 2 17 6 20 11 3 4 5 -29 4 -72 0 -44 -3 -82 -6 -85 -3 -3 -5 26 -4 65 1
39 -3 72 -7 75 -9 6 -11 -9 -8 -78 1 -27 -3 -48 -8 -48 -5 0 -8 16 -6 35 1 20
-1 33 -6 30 -4 -3 -10 1 -13 7 -3 7 -3 0 -2 -17 2 -16 4 -30 6 -30 6 0 5 -76
-2 -81 -5 -3 -2 -15 6 -28 13 -20 13 -25 -2 -46 -10 -14 -11 -20 -3 -15 10 6
12 2 8 -19 -3 -14 -2 -29 3 -32 4 -2 6 -11 3 -19 -4 -8 -10 -12 -15 -9 -5 3
-6 -2 -3 -10 5 -12 9 -13 19 -3 10 10 13 33 5 45 -2 2 -2 55 -1 75 1 9 3 9 10
-2 6 -9 11 -10 15 -2 4 6 0 14 -9 17 -9 4 -14 13 -11 20 3 8 -1 14 -10 14 -8
0 -12 5 -9 10 4 6 10 8 15 5 5 -3 13 3 19 12 6 10 11 13 11 6 0 -6 -4 -14 -9
-17 -12 -8 -6 -42 7 -39 12 3 10 -20 -4 -38 -13 -19 -18 -73 -6 -65 6 3 9 17
8 31 -2 13 1 22 5 19 7 -4 6 -49 -1 -49 -1 0 -3 -13 -4 -28 -2 -15 -8 -33 -14
-39 -7 -7 -7 -19 -2 -34 6 -15 6 -24 0 -24 -6 0 -10 3 -11 8 -2 22 -8 45 -14
50 -5 6 -4 -12 5 -53 5 -20 0 -36 -9 -30 -5 3 -13 1 -16 -5 -4 -6 -1 -9 7 -8
7 2 12 -3 10 -10 -1 -8 2 -11 8 -7 5 3 10 0 10 -8 0 -15 27 -16 50 -2 12 7 13
6 4 -6 -6 -8 -10 -22 -9 -31 2 -10 -1 -20 -5 -23 -5 -3 -7 3 -5 15 5 26 -15
37 -30 17 -7 -9 -15 -14 -18 -11 -3 3 -4 -1 -3 -10 1 -8 5 -19 9 -22 4 -4 0
-15 -8 -24 -14 -15 -14 -18 0 -30 10 -9 12 -16 5 -25 -7 -8 -5 -12 5 -12 8 0
12 4 9 9 -3 4 0 8 6 8 7 0 9 -8 4 -22 -6 -20 -5 -21 9 -10 16 14 17 28 3 51
-6 9 -10 10 -16 2 -5 -9 -11 -7 -21 5 -12 16 -12 17 4 11 12 -4 16 -3 11 4 -4
6 0 15 7 20 9 6 10 9 2 9 -12 0 -10 37 3 49 4 3 4 -1 2 -9 -3 -8 -1 -23 4 -33
7 -14 13 -16 23 -7 9 8 15 8 20 0 7 -11 5 -12 -25 -14 -11 0 -19 -5 -17 -11 1
-5 5 -9 10 -7 4 1 6 -4 5 -10 -2 -7 3 -12 11 -10 12 3 12 0 1 -12 -7 -9 -9
-16 -5 -16 5 0 0 -9 -10 -20 -10 -11 -15 -26 -11 -36 5 -14 9 -14 24 -3 15 12
16 12 5 -2 -7 -9 -9 -20 -5 -25 4 -4 0 -3 -9 4 -20 15 -39 -2 -32 -29 5 -17
14 -23 34 -21 3 1 6 -6 6 -14 0 -10 -4 -11 -11 -4 -15 15 -30 12 -17 -4 8 -10
9 -16 1 -21 -5 -3 -10 -13 -10 -21 0 -8 5 -12 10 -9 6 4 10 3 9 -2 -3 -20 2
-27 11 -13 9 15 8 -22 -3 -75 -3 -11 0 -27 6 -35 6 -8 0 -5 -14 8 -14 12 -28
19 -32 16 -4 -4 1 -13 11 -20 9 -7 18 -17 18 -23 3 -24 5 -25 13 -12 6 9 8 4
8 -17 -1 -17 -6 -30 -12 -29 -5 1 -9 -4 -7 -11 3 -16 -28 -76 -35 -68 -3 3 0
12 7 21 7 9 10 18 6 22 -3 3 -6 1 -6 -6 0 -7 -5 -9 -10 -6 -15 9 -1 27 16 21
19 -7 18 8 -1 24 -8 7 -12 16 -9 22 3 5 11 5 19 -2 8 -7 15 -7 19 -1 6 9 -11
26 -26 26 -5 0 -7 5 -5 10 1 6 7 9 12 7 6 -2 6 0 2 5 -5 4 -12 8 -15 8 -4 0
-12 4 -19 8 -6 4 -15 3 -18 -3 -4 -6 -3 -10 2 -9 20 3 24 -2 13 -17 -8 -8 -9
-14 -4 -12 5 2 9 -1 9 -7 0 -5 -4 -9 -9 -7 -5 2 -5 -3 0 -10 12 -15 12 -28 1
-45 -4 -6 -3 -14 2 -18 6 -3 8 -12 5 -19 -3 -8 -1 -17 5 -21 6 -3 11 -11 11
-17 0 -6 -7 -5 -17 3 -16 12 -17 12 -7 -1 6 -8 10 -22 9 -31 -2 -9 3 -16 10
-16 7 0 11 13 10 34 -1 18 3 33 8 33 5 0 7 -9 4 -19 -5 -22 24 -56 38 -44 5 5
4 1 -3 -8 -6 -9 -8 -19 -4 -23 4 -4 0 -6 -8 -4 -10 2 -14 -7 -15 -32 -2 -43 5
-57 16 -39 7 10 8 9 6 -6 -1 -11 -6 -25 -10 -32 -4 -6 -3 -14 1 -17 11 -6 10
-46 -2 -64 -12 -19 -32 2 -31 32 1 14 4 29 8 32 3 4 2 15 -4 26 -5 10 -6 24
-2 31 9 15 12 57 4 54 -3 -1 -7 3 -8 8 -2 6 0 10 5 10 15 0 32 17 26 26 -4 6
-12 5 -22 -5 -16 -14 -22 -16 -39 -16 -4 0 -2 -5 4 -11 6 -6 9 -19 6 -28 -4
-12 -3 -13 5 -3 7 11 10 9 15 -7 3 -12 1 -24 -4 -27 -5 -3 -9 0 -9 7 0 7 -3
10 -6 7 -3 -4 2 -20 10 -37 11 -19 12 -32 6 -36 -6 -4 -8 -16 -4 -28 6 -20 5
-21 -12 -7 -13 10 -12 7 4 -11 29 -33 29 -48 0 -23 -13 11 -18 13 -13 4 12
-18 13 -40 1 -60 -7 -12 -6 -13 4 -3 11 10 17 10 29 0 12 -8 11 -6 -1 9 -10
11 -18 23 -18 26 0 4 8 5 18 3 9 -1 26 5 37 14 19 16 20 15 3 -5 -14 -16 -15
-23 -5 -34 10 -12 9 -12 -5 -1 -11 8 -18 9 -18 3 0 -6 5 -14 10 -17 6 -4 10
-12 9 -18 -3 -27 2 -38 14 -31 6 4 4 -2 -7 -14 -10 -12 -23 -19 -27 -16 -5 3
-6 -2 -3 -11 6 -14 9 -14 28 2 l21 18 -19 -22 c-10 -13 -23 -20 -27 -17 -5 3
-9 -2 -9 -11 0 -9 4 -14 9 -10 6 3 8 -7 5 -22 -4 -27 -3 -27 11 -9 8 11 15 15
15 9 0 -6 -7 -16 -15 -23 -8 -7 -15 -17 -15 -23 0 -5 10 -2 22 9 l22 19 -22
-29 c-25 -33 -28 -68 -8 -85 16 -14 15 -36 -2 -53 -7 -7 -12 -20 -12 -31 0
-10 -5 -15 -10 -12 -7 4 -6 13 1 27 7 12 7 18 1 14 -11 -7 -9 86 3 119 5 14 4
16 -3 6 -6 -8 -12 -9 -16 -3 -3 5 1 15 8 21 12 10 12 16 1 38 -8 15 -11 31 -8
37 4 6 6 24 5 40 -2 24 0 27 12 17 8 -7 17 -8 20 -3 3 6 -2 12 -12 14 -10 3
-19 12 -19 21 0 8 6 13 14 10 7 -3 13 -1 13 4 0 5 -9 9 -19 10 -16 1 -19 -4
-18 -25 1 -17 -3 -26 -11 -24 -9 2 -9 -4 2 -20 9 -14 12 -29 7 -36 -4 -7 -6
-25 -3 -39 4 -20 2 -24 -8 -18 -8 5 -11 4 -6 -3 4 -6 14 -8 24 -5 15 6 15 5 3
-10 -7 -9 -18 -14 -25 -10 -8 4 -7 2 1 -7 6 -7 9 -18 7 -25 -3 -7 -1 -16 5
-19 6 -4 8 -13 5 -21 -4 -8 -11 -12 -17 -8 -6 3 -3 -4 6 -17 12 -17 13 -28 6
-42 -7 -12 -7 -24 -1 -31 5 -7 8 -20 7 -30 -3 -13 0 -15 8 -9 7 5 20 8 29 7
10 -2 20 1 24 6 3 5 9 7 13 4 5 -2 57 4 117 14 315 54 627 81 996 85 243 2
521 -6 563 -16 11 -3 21 -13 22 -24 3 -18 3 -18 -5 0 -8 18 -9 18 -15 3 -7
-18 -33 -23 -39 -8 -1 5 -9 3 -16 -5 -10 -11 -1 -13 60 -13 79 1 225 -6 438
-21 232 -17 262 -20 400 -35 19 -2 62 -7 95 -10 335 -34 894 -129 1163 -199
52 -14 95 -20 98 -15 3 5 2 9 -3 8 -4 -1 -15 -1 -23 0 -13 1 -13 2 0 11 13 9
13 10 0 10 -12 1 -12 2 2 10 11 7 38 5 85 -6 98 -23 103 -24 103 -15 0 4 -5
12 -12 19 -7 7 -8 12 -4 12 5 0 3 7 -5 16 -15 19 -19 53 -7 60 5 3 3 13 -4 22
-12 15 -11 16 4 3 10 -7 15 -18 11 -24 -11 -19 -10 -47 2 -57 17 -14 14 73 -4
94 -8 9 -11 19 -8 23 4 3 1 13 -5 22 -8 10 -4 9 10 -3 25 -22 30 -11 6 15 -12
13 -12 19 -3 25 7 4 10 3 5 -4 -3 -6 -2 -14 4 -17 20 -12 4 67 -16 83 -15 11
-15 13 -2 9 20 -7 31 18 14 32 -7 6 -15 9 -18 6 -2 -3 -5 2 -5 10 0 13 3 13
19 -2 20 -18 25 -4 6 15 -7 7 -8 12 -4 12 5 0 2 8 -5 18 -13 15 -12 16 4 3 9
-7 17 -9 17 -3 0 15 -26 33 -35 24 -5 -4 -5 -1 -1 6 6 10 11 10 22 1 22 -18
17 6 -6 26 -15 13 -17 22 -10 36 7 12 7 20 0 24 -5 3 -10 11 -10 18 0 6 6 2
14 -8 9 -13 11 -25 5 -36 -6 -11 -4 -21 4 -28 10 -8 13 -3 14 24 1 19 -3 38
-8 41 -5 3 -4 14 2 25 6 11 8 27 5 36 -3 8 -2 23 4 33 7 13 6 20 -6 24 -11 4
-15 2 -11 -7 3 -8 1 -20 -3 -28 -5 -8 -4 -20 3 -29 10 -13 10 -13 -5 -1 -12 9
-15 18 -9 30 5 9 6 21 4 28 -2 7 5 18 16 24 13 9 17 18 12 28 -5 9 -6 25 -4
36 5 22 5 19 -1 95 -3 43 -2 50 7 35 15 -26 21 -67 7 -45 -7 12 -9 10 -7 -7 0
-12 4 -20 7 -18 3 2 5 -12 5 -30 0 -19 -4 -31 -10 -27 -6 4 -6 1 0 -9 14 -20
12 -48 -3 -58 -11 -7 -10 -9 2 -14 9 -4 16 -1 16 5 0 6 8 21 18 32 16 20 16
20 -1 7 -15 -12 -17 -11 -14 5 1 11 7 25 11 33 6 10 5 12 -2 7 -18 -11 -14 5
6 28 14 17 14 18 0 8 -14 -11 -16 -9 -13 25 2 21 4 39 6 41 1 1 2 5 3 10 1 4
5 13 9 20 6 8 4 12 -5 10 -7 -2 -14 8 -16 21 -3 17 0 21 10 15 11 -6 11 -5 0
8 -13 16 -12 44 2 67 6 10 5 12 -2 7 -7 -4 -12 -1 -12 9 0 10 5 13 13 9 9 -6
9 -4 -1 8 -13 16 -12 44 2 67 6 10 5 12 -2 7 -18 -11 -14 5 5 26 10 11 13 19
8 18 -21 -5 -36 1 -30 10 4 6 11 7 17 4 7 -4 8 -2 4 5 -4 6 -2 19 5 27 10 12
10 15 -1 12 -7 -2 -15 3 -18 11 -2 8 0 11 5 8 5 -3 10 4 10 16 2 17 0 19 -7 7
-9 -13 -10 -13 -10 1 0 8 6 21 13 28 6 8 7 11 1 8 -6 -4 -10 10 -10 38 0 24 4
42 8 39 5 -3 7 0 6 8 -2 7 3 12 10 10 8 -1 11 2 7 8 -5 8 -11 7 -21 -1 -20
-16 -17 0 4 25 16 20 16 20 -2 6 -18 -14 -19 -13 -12 5 5 11 9 29 10 40 1 11
6 27 11 35 8 13 7 13 -8 1 -20 -16 -23 -1 -4 18 6 7 7 11 2 9 -6 -2 -10 2 -10
7 0 5 4 9 8 7 5 -1 5 3 1 10 -17 26 -14 52 8 77 l23 26 -22 -19 c-24 -20 -32
-10 -10 13 10 11 10 13 0 7 -7 -4 -13 -3 -13 1 0 5 6 15 13 22 10 11 10 13 0
7 -9 -5 -13 1 -13 19 0 14 4 24 8 21 5 -3 9 1 9 9 0 8 -3 13 -6 12 -3 -1 -6 3
-6 8 0 6 3 9 7 8 5 -2 7 3 5 10 -1 6 4 11 11 9 8 -1 11 2 7 8 -5 8 -11 7 -21
-1 -8 -7 -14 -7 -14 -1 0 15 26 33 36 24 5 -4 1 2 -8 14 -14 16 -15 23 -5 34
10 12 9 12 -4 2 -14 -10 -15 -2 -14 76 1 48 0 91 -3 96 -3 5 -6 22 -7 38 -2
25 -1 27 13 16 13 -11 14 -11 7 2 -6 8 -10 17 -11 20 0 3 -4 13 -9 24 -5 12
-2 28 9 47 10 16 14 28 9 27 -4 -2 -8 2 -8 7 0 6 4 8 10 7 5 -2 7 0 2 4 -4 4
1 17 10 28 13 15 10 14 -10 -3 -31 -28 -35 -22 -11 15 10 14 13 24 8 22 -5 -2
-9 2 -9 7 0 6 3 9 7 8 10 -4 3 26 -10 39 -21 21 -13 32 10 12 13 -11 18 -13
11 -3 -10 12 -10 18 0 29 10 12 9 12 -5 1 -15 -11 -17 -9 -14 23 2 20 0 39 -5
42 -5 3 -9 23 -9 45 0 22 4 38 9 35 5 -3 7 -19 5 -35 -2 -19 3 -34 14 -43 15
-12 16 -11 4 4 -15 19 -7 42 10 32 7 -4 8 -2 4 5 -4 6 -12 8 -18 5 -7 -5 -9
-1 -5 9 3 9 2 19 -3 22 -9 6 -8 31 3 41 4 4 7 12 7 18 0 5 -6 1 -14 -9 -12
-16 -13 -15 -11 19 1 20 11 46 21 58 11 12 14 18 7 15 -17 -11 -27 12 -12 29
10 12 10 15 -1 12 -17 -4 -20 31 -5 51 7 11 7 13 -2 7 -8 -4 -13 -1 -13 9 0
10 5 13 12 9 7 -5 8 -3 3 6 -5 8 -10 33 -12 56 -2 38 -1 42 17 39 12 -2 18 0
15 6 -4 5 -11 6 -17 3 -8 -5 -9 -1 -5 10 4 11 3 15 -4 10 -14 -8 -9 65 5 85 8
11 8 13 -1 7 -8 -4 -13 -2 -13 8 0 10 7 13 20 11 12 -2 18 0 15 6 -4 5 -11 6
-17 3 -8 -5 -9 -1 -5 10 4 10 1 19 -8 22 -8 4 -12 10 -9 16 3 5 15 1 27 -9 22
-18 22 -18 4 4 -13 14 -15 23 -7 28 8 5 8 10 0 20 -8 10 -8 15 0 20 8 5 8 11
1 19 -6 7 -7 17 -3 21 4 5 1 5 -6 1 -9 -6 -12 -3 -10 9 2 11 -4 19 -15 21 -13
2 -15 -1 -8 -10 6 -7 9 -23 6 -35 -3 -18 -2 -21 10 -11 9 7 15 8 20 0 3 -5 5
-10 3 -11 -26 -6 -39 -6 -44 2 -3 5 -11 6 -17 2 -9 -5 -9 -3 0 8 10 12 10 18
0 29 -10 12 -9 12 6 1 9 -7 17 -9 17 -3 0 11 -25 34 -31 27 -3 -2 -4 12 -3 32
1 47 -50 101 -89 94 -5 -1 -6 2 -4 6 14 22 -416 249 -643 341 -378 153 -855
266 -1245 297 -44 4 -91 9 -105 11 -31 7 -669 13 -730 8z m-1232 -393 c0 -3 1
-9 2 -13 1 -5 3 -14 4 -20 1 -7 8 -12 16 -10 11 3 11 0 0 -12 -7 -9 -9 -16 -5
-16 5 0 1 -8 -7 -17 -12 -16 -14 -30 -9 -74 0 -5 7 -7 14 -3 9 6 9 4 1 -7 -6
-8 -10 -22 -9 -32 2 -9 0 -15 -5 -12 -5 3 -10 -1 -13 -7 -4 -10 -7 -11 -18 0
-10 9 -10 15 -1 24 9 9 12 9 12 -1 0 -7 4 -10 9 -6 11 6 6 44 -8 58 -6 6 -8 1
-4 -14 3 -13 3 -22 0 -19 -3 3 -6 10 -7 15 -1 6 -6 15 -11 22 -7 7 -6 13 0 17
6 4 8 13 5 20 -3 8 0 17 5 21 6 3 9 11 6 16 -4 5 -1 9 4 9 14 0 14 -13 -1 -28
-8 -8 -8 -12 -1 -12 14 0 29 21 28 40 0 9 -8 14 -20 12 -17 -2 -17 -1 -5 7 13
10 13 11 0 11 -13 0 -13 1 0 10 10 6 11 10 3 10 -7 0 -13 4 -13 8 0 5 7 9 14
9 8 0 15 -3 14 -6z m76 -79 c3 -5 -1 -9 -9 -9 -8 0 -12 4 -9 9 3 4 7 8 9 8 2
0 6 -4 9 -8z m-68 -197 c-2 -7 0 -17 6 -23 6 -6 6 -12 -1 -17 -7 -3 -10 -1 -9
6 2 7 -6 14 -17 16 -16 3 -17 2 -5 -6 12 -8 13 -12 2 -23 -8 -7 -13 -8 -12 -3
2 6 1 12 0 15 -15 40 2 79 27 59 8 -7 12 -18 9 -24z m54 29 c0 -8 -19 -13 -24
-6 -3 5 1 9 9 9 8 0 15 -2 15 -3z m24 -32 c3 -5 -1 -9 -9 -9 -8 0 -12 4 -9 9
3 4 7 8 9 8 2 0 6 -4 9 -8z m-29 -91 c3 -5 2 -12 -3 -15 -5 -3 -9 1 -9 9 0 17
3 19 12 6z m4012 -107 c-3 -3 -12 -4 -19 -1 -8 3 -5 6 6 6 11 1 17 -2 13 -5z
m32 -40 c-19 -21 -20 -24 -6 -30 12 -4 14 -11 8 -22 -10 -19 -9 -327 1 -337 4
-4 4 -13 2 -20 -3 -7 0 -16 6 -20 8 -5 8 -11 -1 -21 -15 -18 -19 -74 -7 -91 5
-6 5 -14 -2 -18 -12 -8 -14 -82 -1 -89 10 -6 7 -58 -4 -75 -4 -7 0 -20 9 -30
15 -16 15 -19 1 -31 -12 -10 -13 -16 -4 -26 8 -10 8 -18 1 -27 -12 -14 -11
-35 1 -54 4 -7 2 -21 -5 -33 -10 -16 -10 -24 -1 -40 7 -10 9 -21 4 -24 -7 -5
-7 -71 0 -71 1 0 2 -24 3 -52 1 -29 -2 -53 -6 -53 -4 0 -8 -5 -8 -11 0 -5 4
-8 9 -5 5 3 7 -10 5 -28 -2 -22 3 -39 12 -47 13 -10 12 -14 -2 -30 -9 -10 -13
-22 -10 -28 4 -5 2 -12 -4 -16 -6 -4 -7 -11 -4 -17 10 -15 10 -199 1 -205 -4
-3 -3 -10 2 -17 6 -7 8 -16 4 -19 -3 -4 0 -13 7 -22 7 -9 8 -15 2 -15 -6 0
-12 6 -15 13 -2 6 -4 -4 -4 -23 0 -19 2 -27 4 -17 3 9 9 17 14 17 6 0 7 -6 2
-12 -11 -18 -12 -237 -1 -244 5 -3 2 -17 -7 -30 -14 -22 -14 -25 0 -30 8 -4
12 -11 7 -18 -9 -13 -13 -215 -5 -236 10 -26 11 -40 3 -35 -5 3 -12 20 -15 38
-4 17 -16 46 -27 62 l-20 30 21 -24 c15 -16 21 -19 21 -8 0 8 -6 20 -14 26 -8
7 -14 24 -12 39 1 15 -2 33 -7 40 -8 9 -7 12 3 10 10 -2 14 12 15 52 1 42 -4
60 -19 78 -15 16 -16 23 -7 20 11 -2 15 7 15 39 -1 35 2 41 13 32 8 -7 13 -8
13 -1 0 13 -25 33 -34 27 -3 -3 1 3 9 12 13 15 12 20 -8 43 l-22 25 28 -24
c15 -14 27 -21 27 -16 0 5 -12 23 -27 39 l-28 31 28 -24 c30 -27 37 -19 10 13
-15 17 -15 19 -1 8 14 -11 16 -9 13 22 -2 20 -7 41 -11 47 -4 8 -3 9 4 5 7 -4
12 -3 12 2 0 16 -13 22 -26 11 -8 -7 -14 -7 -19 1 -4 6 -1 9 7 8 7 -2 12 4 10
12 -2 8 0 12 4 8 4 -4 13 -3 21 4 11 9 10 15 -7 33 -15 16 -18 25 -10 30 8 5
7 11 -2 23 -11 15 -11 15 3 4 14 -11 17 -9 17 13 0 19 -4 23 -13 15 -9 -7 -16
-5 -26 7 -13 16 -12 17 3 5 10 -8 19 -9 22 -3 4 5 2 12 -3 15 -5 4 -8 14 -6
24 1 9 -2 23 -8 30 -5 6 -6 12 -2 12 4 0 2 7 -5 16 -11 12 -11 15 1 12 8 -2
13 3 11 11 -3 12 0 12 12 1 19 -15 21 0 4 19 -7 8 -8 11 -2 8 7 -4 11 5 11 23
0 25 -3 28 -16 18 -13 -10 -14 -10 -4 2 10 10 10 17 1 27 -6 8 -7 13 -2 12 23
-4 25 3 9 27 -14 21 -14 28 -3 41 14 18 14 19 -10 48 -16 19 -16 19 1 6 16
-12 17 -11 13 10 -3 13 -5 25 -5 27 -1 1 -1 5 -2 10 0 4 -8 16 -17 27 -17 20
-17 20 6 1 12 -11 22 -14 22 -9 0 6 -6 16 -14 22 -8 7 -13 20 -11 29 1 9 -2
24 -8 32 -9 13 -9 13 3 2 8 -7 15 -22 15 -32 0 -11 4 -19 10 -17 12 3 7 37 -8
56 -7 8 -12 24 -12 35 -1 12 -4 27 -8 34 -5 7 -4 12 2 12 11 0 15 -13 12 -37
-1 -8 5 -10 13 -7 11 4 13 11 7 22 -4 10 -6 23 -3 31 3 9 0 11 -8 6 -9 -6 -11
-4 -4 6 17 27 14 53 -8 76 -12 12 -18 23 -13 23 4 0 14 -8 21 -17 12 -16 13
-16 10 7 -3 31 -15 52 -25 46 -4 -3 -8 1 -8 9 0 8 3 13 5 10 3 -3 11 0 19 6
17 15 18 93 1 83 -10 -5 -10 -4 -1 6 10 11 10 17 0 29 -9 12 -9 13 1 7 15 -9
15 -1 2 24 -7 12 -7 21 0 25 6 4 5 13 -2 25 -7 10 -15 17 -18 15 -4 -2 -7 3
-7 12 0 12 5 11 19 -7 11 -14 18 -17 18 -8 0 8 -5 19 -12 26 -9 9 -7 13 5 18
9 3 14 10 11 16 -3 5 -15 1 -27 -9 -22 -18 -22 -18 -4 4 13 14 15 23 7 28 -6
4 -10 14 -9 23 1 10 0 19 -1 22 -7 19 -7 39 1 34 5 -3 7 -9 4 -14 -3 -5 -1
-11 4 -14 5 -3 7 -14 4 -24 -2 -10 3 -24 11 -31 10 -8 16 -9 16 -3 0 6 -4 13
-8 16 -4 2 -7 17 -6 33 1 16 -7 37 -19 50 -15 17 -17 26 -9 36 7 8 8 18 4 23
-4 5 -3 5 2 1 13 -10 17 -39 5 -31 -10 6 -13 -9 -3 -19 15 -15 32 6 25 31 -4
15 -6 44 -3 66 3 30 2 37 -8 31 -9 -6 -11 -4 -4 6 16 26 15 52 -3 72 -10 11
-13 17 -6 14 6 -4 14 -3 18 3 5 9 -6 14 -26 12 -3 -1 -6 6 -6 14 0 10 4 11 11
4 20 -20 29 -10 10 12 -10 12 -14 18 -8 15 7 -4 17 0 24 8 10 12 16 13 27 4
11 -10 10 -16 -8 -35z m-4008 12 c-12 -14 -35 -16 -47 -3 -4 3 3 5 14 2 12 -2
24 0 27 6 4 5 9 9 12 9 3 0 0 -6 -6 -14z m3972 -107 c-3 -10 -9 -22 -14 -25
-5 -3 -5 6 0 19 7 17 6 29 -2 38 -10 11 -9 11 4 1 10 -8 15 -21 12 -33z m4
-64 c0 -8 -4 -12 -9 -9 -5 3 -6 10 -3 15 9 13 12 11 12 -6z m-4046 -12 c10 10
11 9 3 -3 -6 -8 -10 -31 -9 -52 1 -31 -2 -36 -18 -32 -15 2 -16 0 -7 -11 8
-10 8 -15 -1 -20 -14 -9 -29 13 -22 32 3 7 12 12 21 11 11 -2 16 6 17 25 2 32
-5 39 -25 26 -10 -6 -11 -9 -2 -9 6 0 12 -7 12 -15 0 -8 -5 -15 -12 -15 -6 0
-8 3 -5 7 4 3 2 12 -4 19 -9 11 -7 15 5 20 15 6 15 8 -1 21 -15 12 -13 12 8 0
20 -12 29 -13 40 -4z m46 2 c0 -8 -4 -12 -9 -9 -5 3 -6 10 -3 15 9 13 12 11
12 -6z m28 -74 c-9 -8 -36 -10 -30 -2 2 4 11 8 20 8 8 0 13 -3 10 -6z m-78
-50 c0 -11 -5 -18 -9 -15 -4 3 -5 11 -1 19 7 21 12 19 10 -4z m43 -7 c0 -8
-19 -13 -24 -6 -3 5 1 9 9 9 8 0 15 -2 15 -3z m3 -58 c3 3 4 -2 3 -13 -2 -10
-7 -18 -12 -18 -5 0 -16 -4 -24 -10 -12 -7 -13 -6 -4 6 6 8 10 22 9 32 -3 14
0 15 9 8 7 -6 15 -8 19 -5z m-73 -16 c0 -5 -2 -10 -4 -10 -3 0 -8 5 -11 10 -3
6 -1 10 4 10 6 0 11 -4 11 -10z m25 -49 c3 -5 2 -12 -3 -15 -5 -3 -9 1 -9 9 0
17 3 19 12 6z m69 -39 c3 -5 -1 -9 -9 -9 -8 0 -12 4 -9 9 3 4 7 8 9 8 2 0 6
-4 9 -8z m3971 -1 c3 -5 2 -12 -3 -15 -5 -3 -9 1 -9 9 0 17 3 19 12 6z m0 -40
c3 -5 2 -12 -3 -15 -5 -3 -9 1 -9 9 0 17 3 19 12 6z m0 -40 c3 -5 2 -12 -3
-15 -5 -3 -9 1 -9 9 0 17 3 19 12 6z m-4038 -16 c0 -8 -4 -12 -9 -9 -5 3 -6
10 -3 15 9 13 12 11 12 -6z m50 -10 c0 -8 -4 -12 -9 -9 -5 3 -6 10 -3 15 9 13
12 11 12 -6z m4000 -30 c0 -8 -4 -12 -9 -9 -5 3 -6 10 -3 15 9 13 12 11 12 -6z
m-3992 -124 c-3 -5 -1 -12 5 -16 6 -4 8 -11 4 -16 -9 -14 -23 -1 -19 19 5 23
4 22 11 22 3 0 3 -4 -1 -9z m3985 -56 c-5 -6 -7 -15 -3 -18 3 -4 4 -7 1 -7 -3
0 -11 7 -18 16 -8 8 -9 14 -4 13 21 -4 26 2 13 19 -13 15 -12 16 4 3 12 -9 14
-17 7 -26z m-4085 -19 c0 -18 -3 -22 -11 -15 -7 5 -10 19 -7 30 7 25 16 17 18
-15z m79 -84 c3 -5 -1 -9 -9 -9 -8 0 -12 4 -9 9 3 4 7 8 9 8 2 0 6 -4 9 -8z
m-64 -223 c0 -11 -4 -18 -10 -14 -5 3 -7 12 -3 20 7 21 13 19 13 -6z m107 -12
c0 -8 -6 -14 -14 -14 -9 0 -10 4 -2 14 6 7 12 13 14 13 1 0 2 -6 2 -13z m3964
-54 c13 -16 12 -17 -3 -4 -17 13 -22 21 -14 21 2 0 10 -8 17 -17z m-4045 -182
c0 -16 -4 -27 -7 -25 -4 2 -6 12 -4 22 2 9 4 20 4 25 1 4 3 7 5 7 2 0 3 -13 2
-29z m68 -29 c3 -5 -1 -9 -9 -9 -8 0 -12 4 -9 9 3 4 7 8 9 8 2 0 6 -4 9 -8z
m-77 -34 c12 -20 12 -36 -1 -34 -22 3 -35 17 -29 31 6 18 19 19 30 3z m69 -32
c2 -16 1 -16 -15 -2 -10 9 -21 13 -26 9 -4 -5 -5 -3 -2 4 10 17 40 9 43 -11z
m3998 -84 c3 -5 -1 -9 -9 -9 -8 0 -12 4 -9 9 3 4 7 8 9 8 2 0 6 -4 9 -8z
m-3997 -17 c0 -8 -4 -12 -9 -9 -5 3 -6 10 -3 15 9 13 12 11 12 -6z m3990 -85
c-2 -23 -10 -17 -12 10 -1 10 2 17 6 14 4 -2 7 -13 6 -24z m-4027 -4 c0 -2 -8
-10 -17 -17 -16 -13 -17 -12 -4 4 13 16 21 21 21 13z m-21 -79 c8 -10 7 -14
-2 -14 -8 0 -14 6 -14 14 0 7 1 13 2 13 2 0 8 -6 14 -13z m46 -56 c3 -5 2 -12
-3 -15 -5 -3 -9 1 -9 9 0 17 3 19 12 6z m-38 -26 c0 -8 -4 -12 -9 -9 -5 3 -6
10 -3 15 9 13 12 11 12 -6z m17 -266 c-3 -5 -9 -7 -14 -4 -10 6 -21 -21 -12
-30 9 -9 10 -55 1 -49 -4 2 -6 13 -4 24 2 11 0 22 -6 25 -5 4 -4 15 3 28 7 12
11 26 10 31 -2 5 4 4 12 -3 9 -7 13 -17 10 -22z m4032 -124 c1 -9 -2 -12 -9
-8 -7 4 -8 0 -3 -13 6 -15 5 -16 -5 -7 -9 9 -9 16 -1 26 7 8 10 17 7 20 -3 4
-2 5 2 2 4 -3 8 -12 9 -20z m-4007 -49 c11 -14 6 -15 -27 -7 -4 1 8 21 12 21
2 0 9 -6 15 -14z m4001 -46 c0 -5 -2 -10 -4 -10 -3 0 -8 5 -11 10 -3 6 -1 10
4 10 6 0 11 -4 11 -10z m4 -57 c-3 -15 -7 -29 -10 -32 -2 -2 1 -10 6 -16 7 -9
5 -17 -7 -26 -16 -13 -17 -12 -5 3 8 10 9 18 3 22 -6 4 -7 16 -2 29 5 12 7 30
5 40 -1 9 2 15 6 12 5 -3 6 -18 4 -32z m-3986 -256 c7 -5 10 -13 6 -18 -4 -6
-11 -6 -20 2 -8 6 -14 8 -14 5 0 -4 -5 -4 -10 -1 -6 4 -8 10 -5 15 6 9 24 8
43 -3z m-33 -89 c4 -3 2 -9 -3 -12 -5 -3 -15 1 -21 8 -10 11 -9 14 3 12 9 -1
18 -5 21 -8z m-29 -34 c1 -9 0 -13 -4 -10 -3 4 -7 14 -8 22 -1 9 0 13 4 10 3
-4 7 -14 8 -22z m5 -87 c-6 -8 -9 -16 -6 -19 3 -3 -3 -11 -12 -19 -16 -13 -17
-12 -4 4 7 9 10 17 6 17 -4 0 -2 7 5 15 7 8 15 15 17 15 3 0 0 -6 -6 -13z
m4035 -12 c1 -8 -1 -17 -5 -19 -4 -3 -7 6 -7 19 0 25 8 25 12 0z"/>
<path d="M10921 23347 c-8 -10 -7 -14 2 -14 8 0 14 6 14 14 0 7 -1 13 -2 13
-2 0 -8 -6 -14 -13z"/>
<path d="M10934 23212 c3 -5 0 -13 -6 -15 -8 -3 -6 -6 5 -6 19 -1 23 14 5 25
-6 4 -8 3 -4 -4z"/>
<path d="M15031 22976 c-8 -10 -9 -16 -1 -21 5 -3 10 -5 11 -3 4 18 7 38 4 38
-1 0 -8 -6 -14 -14z"/>
<path d="M15025 22911 c-3 -5 -1 -12 5 -16 5 -3 10 1 10 9 0 18 -6 21 -15 7z"/>
<path d="M15025 22680 c3 -5 8 -10 11 -10 2 0 4 5 4 10 0 6 -5 10 -11 10 -5 0
-7 -4 -4 -10z"/>
<path d="M15032 22553 c-10 -4 -10 -8 -1 -19 6 -7 9 -21 5 -29 -3 -9 -2 -13 4
-10 5 3 8 19 7 35 -1 17 -2 30 -2 29 0 0 -6 -3 -13 -6z"/>
<path d="M15026 22472 c-2 -4 -1 -14 5 -22 7 -12 9 -10 9 8 0 23 -5 28 -14 14z"/>
<path d="M15033 22405 c0 -8 4 -12 9 -9 5 3 6 10 3 15 -9 13 -12 11 -12 -6z"/>
<path d="M15021 22296 c-8 -10 -8 -16 3 -25 8 -7 12 -20 9 -29 -3 -9 -3 -14 2
-10 10 10 14 67 5 73 -4 3 -13 -1 -19 -9z"/>
<path d="M15035 22185 c0 -13 3 -21 8 -18 4 2 7 10 7 18 0 8 -3 16 -7 18 -5 3
-8 -5 -8 -18z"/>
<path d="M15034 22130 c0 -13 4 -16 10 -10 7 7 7 13 0 20 -6 6 -10 3 -10 -10z"/>
<path d="M15016 22061 c-3 -5 1 -14 8 -20 16 -13 32 2 21 19 -8 12 -22 13 -29
1z"/>
<path d="M15025 21931 c-3 -5 -1 -12 5 -16 5 -3 10 1 10 9 0 18 -6 21 -15 7z"/>
<path d="M15035 21867 c1 -18 -3 -38 -8 -45 -7 -9 -6 -17 1 -24 7 -7 12 -8 13
-2 5 54 5 95 0 98 -4 3 -6 -10 -6 -27z"/>
<path d="M15035 21751 c-3 -5 -2 -12 3 -15 5 -3 9 1 9 9 0 17 -3 19 -12 6z"/>
<path d="M15043 21688 c1 -15 6 -23 11 -18 4 4 4 16 -2 26 -9 16 -10 14 -9 -8z"/>
<path d="M15019 21636 c-6 -7 -5 -37 1 -41 5 -3 7 -14 5 -25 -2 -10 2 -23 8
-29 9 -7 12 0 11 25 -1 19 -4 37 -7 41 -4 3 -2 11 3 18 7 8 5 12 -5 12 -8 0
-15 -1 -16 -1z"/>
<path d="M15031 21466 c-8 -10 -8 -16 1 -24 10 -8 13 -4 13 14 0 28 1 28 -14
10z"/>
<path d="M15031 21196 c-8 -10 -8 -16 2 -24 10 -9 13 -6 13 13 0 29 0 29 -15
11z"/>
<path d="M15024 21108 c2 -16 -1 -31 -6 -34 -5 -3 -2 -14 6 -23 9 -10 14 -21
11 -24 -3 -4 -2 -4 3 -1 12 10 8 111 -5 111 -8 0 -11 -11 -9 -29z"/>
<path d="M15034 20973 c1 -21 0 -42 -3 -48 -11 -20 -9 -74 2 -84 9 -7 12 12
12 74 0 46 -3 86 -6 90 -4 3 -6 -11 -5 -32z"/>
<path d="M10940 21524 c0 -8 5 -12 10 -9 6 4 8 11 5 16 -9 14 -15 11 -15 -7z"/>
<path d="M10926 23614 c-3 -8 -10 -13 -15 -9 -5 3 -12 1 -16 -4 -3 -6 3 -8 15
-6 16 3 20 -1 20 -21 0 -15 -4 -23 -10 -19 -6 4 -8 10 -6 14 3 4 -1 8 -9 8
-10 0 -12 -4 -5 -12 5 -7 6 -16 2 -20 -4 -5 -1 -5 6 -1 11 6 17 -10 13 -36 0
-3 7 -5 17 -4 18 3 23 23 11 41 -6 9 -9 27 -10 68 0 21 -5 22 -13 1z"/>
<path d="M10902 23510 c0 -14 2 -19 5 -12 2 6 2 18 0 25 -3 6 -5 1 -5 -13z"/>
<path d="M9890 23111 c-212 -123 -580 -471 -776 -733 -366 -491 -734 -1204
-997 -1933 -372 -1029 -527 -2036 -442 -2880 8 -82 15 -213 15 -290 1 -853
573 -2267 1638 -4050 268 -448 639 -1030 959 -1502 90 -134 166 -249 169 -257
5 -13 -86 -135 -265 -355 -90 -111 -623 -752 -656 -790 -25 -27 -30 -33 -110
-127 -71 -83 -410 -470 -459 -524 -23 -25 -75 -83 -116 -130 -80 -89 -86 -96
-371 -405 -631 -685 -1481 -1536 -2154 -2157 -1122 -1036 -2247 -1934 -3304
-2637 -284 -189 -606 -392 -813 -512 -70 -41 -128 -77 -128 -80 0 -3 449 -451
998 -995 548 -543 1142 -1132 1318 -1307 l322 -319 178 120 c697 468 1504
1106 2324 1837 510 454 858 783 1439 1360 824 819 1475 1511 2242 2385 383
437 937 1088 938 1103 0 5 11 17 24 27 14 11 28 31 31 45 4 14 10 23 15 21 5
-3 15 2 22 12 13 16 13 16 -5 2 -18 -14 -18 -13 -12 10 6 25 6 25 -5 3 -7 -13
-16 -23 -21 -23 -5 0 -7 -4 -3 -9 3 -5 1 -12 -5 -16 -6 -4 -8 -11 -4 -16 3 -5
0 -8 -8 -7 -7 2 -12 -3 -10 -10 1 -8 -2 -11 -7 -8 -5 4 -14 -2 -20 -11 -6 -10
-11 -14 -11 -9 0 5 -6 5 -13 0 -7 -5 -4 -1 6 8 11 10 14 18 8 18 -8 0 -8 4 1
14 8 8 15 10 19 4 8 -13 17 2 14 24 -2 10 2 16 8 15 7 -1 11 4 9 11 -1 8 2 11
7 8 5 -3 14 8 21 24 7 17 18 34 24 38 6 4 31 33 55 65 24 31 45 57 48 57 2 0
2 -4 -1 -8 -3 -5 1 -9 8 -9 7 0 12 7 9 16 -2 9 1 22 6 30 8 12 12 12 25 2 13
-11 14 -9 11 11 -6 31 18 68 30 48 5 -9 4 -11 -3 -6 -18 11 -14 0 6 -15 9 -7
14 -9 10 -5 -4 5 -2 16 5 24 9 13 9 14 0 8 -8 -4 -13 -2 -13 6 0 15 38 64 84
110 15 15 24 28 20 28 -5 0 2 7 14 16 27 19 38 13 23 -13 -8 -14 -10 -14 -11
-3 0 13 -2 13 -9 0 -6 -8 -8 -17 -5 -22 2 -4 -5 -12 -17 -18 -17 -10 -20 -9
-14 1 5 7 4 10 -3 6 -5 -4 -8 -17 -5 -30 3 -16 2 -18 -5 -9 -7 11 -11 10 -16
-4 -3 -9 -4 -19 -1 -22 3 -3 5 0 5 7 0 7 5 9 10 6 17 -10 -8 -34 -30 -30 -11
2 -23 -1 -26 -7 -4 -6 -3 -8 3 -5 16 10 23 -18 10 -34 -10 -11 -9 -11 5 0 10
7 14 19 11 28 -4 10 -2 14 4 10 6 -4 17 1 26 11 16 18 17 20 17 50 0 12 2 14
8 4 7 -9 13 -8 27 8 10 11 14 20 9 20 -5 0 3 10 17 23 15 12 64 69 110 127 46
57 91 113 99 123 15 18 20 13 99 -87 46 -58 88 -106 93 -106 5 0 7 -4 3 -9 -3
-5 6 -18 20 -30 15 -11 26 -22 25 -26 0 -3 8 -17 20 -32 12 -16 20 -20 20 -11
0 8 -15 32 -34 54 -25 30 -32 44 -25 55 8 11 9 10 7 -6 -2 -11 3 -20 10 -21 6
-1 15 -3 20 -4 4 -1 11 -2 15 -1 5 1 6 -2 3 -7 -3 -5 8 -22 24 -37 17 -16 30
-35 30 -42 0 -8 4 -12 9 -8 6 3 15 -3 20 -14 14 -25 14 -34 1 -26 -16 10 -11
-1 7 -16 14 -12 16 -12 9 0 -5 8 -5 12 1 10 10 -4 64 -65 113 -129 14 -18 30
-37 35 -44 61 -70 75 -90 74 -109 0 -21 -1 -21 -9 -2 -8 18 -9 18 -9 2 -1 -12
-5 -16 -13 -11 -7 4 -6 -1 3 -12 132 -160 324 -390 328 -394 4 -3 29 -32 56
-65 61 -74 57 -69 251 -295 305 -357 795 -912 1033 -1169 53 -57 101 -109 106
-115 32 -37 126 -139 240 -261 1811 -1945 3582 -3530 5043 -4510 l162 -109 53
52 c29 29 58 52 65 52 8 0 10 5 6 13 -5 7 0 6 11 -3 15 -12 17 -12 10 -1 -6
11 -4 13 11 7 10 -4 15 -4 11 0 -4 4 1 13 11 20 13 9 20 10 31 1 11 -9 13 -9
8 -1 -8 15 18 38 33 29 6 -4 9 -2 8 3 -4 13 42 53 53 46 5 -3 6 3 2 13 -3 10
-3 15 1 11 4 -3 59 45 121 107 62 62 116 111 119 108 3 -4 6 1 6 11 0 9 5 14
10 11 6 -3 10 1 10 9 0 16 33 39 43 30 3 -3 4 3 4 13 -1 11 4 18 15 17 10 -1
16 2 13 6 -2 4 3 16 11 26 9 10 12 13 8 5 -5 -9 -3 -12 4 -7 7 4 12 12 12 17
0 13 67 79 80 79 6 0 8 5 4 12 -5 8 -2 9 9 5 9 -3 19 -1 23 5 4 7 3 8 -4 4 -7
-4 -12 -2 -12 3 0 6 7 11 16 11 9 0 12 5 8 12 -5 8 -2 9 9 5 9 -3 19 -1 23 5
4 7 3 8 -4 4 -20 -12 -13 6 9 25 12 10 26 16 32 12 6 -4 7 -1 2 6 -9 16 44 73
62 67 7 -3 15 0 19 6 4 7 3 8 -4 4 -20 -12 -13 6 9 25 12 10 25 16 30 13 5 -3
6 1 3 9 -3 8 0 18 7 23 8 5 10 3 4 -6 -5 -9 -4 -11 3 -6 7 4 12 14 12 22 0 8
7 14 16 14 9 0 18 9 21 20 5 18 15 24 35 21 4 0 4 7 1 16 -4 10 -2 14 4 10 6
-4 14 0 17 9 3 8 11 12 16 9 6 -4 9 -1 8 7 -2 7 2 12 9 11 8 -2 10 4 6 14 -4
11 -3 14 5 9 7 -4 12 -1 12 9 0 9 4 14 9 11 5 -3 12 1 15 10 3 8 11 12 16 9 6
-4 9 -1 8 7 -2 7 3 12 9 11 7 -2 12 3 10 10 -1 6 4 11 10 10 7 -2 12 3 10 10
-1 6 4 11 11 9 8 -1 11 1 9 5 -6 10 290 303 297 295 3 -3 6 2 6 11 0 9 5 19
12 23 7 5 8 3 3 -6 -5 -9 -4 -11 3 -6 7 4 12 12 12 18 0 15 41 49 51 42 5 -3
6 2 3 11 -5 11 0 18 15 22 11 3 18 10 14 16 -4 6 0 8 10 4 9 -3 19 -1 23 5 4
7 3 8 -4 4 -20 -12 -13 6 9 25 12 10 25 16 30 13 5 -3 6 1 3 9 -3 8 0 18 7 23
8 5 10 3 4 -6 -5 -9 -4 -11 3 -6 7 4 12 12 12 18 0 15 41 49 51 42 5 -3 6 1 3
9 -3 8 0 18 7 23 8 5 10 3 4 -6 -5 -9 -4 -11 3 -6 7 4 12 14 12 22 0 13 12 18
32 15 4 0 5 5 2 13 -3 8 0 17 7 22 8 5 10 3 4 -6 -5 -9 -4 -11 3 -6 7 4 12 12
12 18 0 14 41 49 50 43 4 -3 7 3 6 13 0 10 6 17 16 17 9 0 20 4 25 9 4 5 3 6
-4 2 -7 -4 -13 -2 -13 3 0 10 14 15 32 12 4 0 5 6 2 13 -6 16 29 40 40 28 4
-3 4 2 0 11 -5 13 -1 20 15 24 11 3 18 10 15 15 -3 5 2 8 12 6 14 -2 18 2 16
16 -2 10 1 15 6 12 6 -3 13 1 16 10 3 8 11 12 16 9 6 -4 9 -1 8 7 -2 7 2 12 9
11 8 -2 10 4 6 14 -4 10 -2 14 4 10 6 -4 14 0 17 9 3 8 11 12 16 9 6 -4 9 -1
8 7 -2 7 3 12 9 11 7 -2 12 3 10 10 -1 6 4 11 10 10 7 -2 12 3 10 10 -1 6 4
11 10 10 7 -2 12 3 10 10 -1 6 5 11 13 9 8 -2 12 -1 8 3 -8 8 63 80 75 77 5
-1 6 2 2 7 -3 6 8 23 25 39 16 16 30 33 30 38 0 5 9 15 21 22 15 10 18 16 10
26 -11 14 -5 26 13 26 6 0 4 -5 -4 -11 -13 -9 -13 -10 0 -6 8 2 16 9 16 15 1
7 3 15 4 20 1 4 2 11 1 15 -1 5 23 36 54 70 30 34 55 64 55 67 0 3 -107 69
-238 147 -1049 628 -2196 1482 -3356 2499 -251 220 -525 465 -636 569 -36 34
-101 95 -145 135 -351 323 -1267 1231 -1630 1615 -555 587 -1031 1117 -1501
1670 -425 500 -878 1061 -871 1078 3 7 126 195 274 417 714 1076 1201 1899
1631 2760 500 999 773 1771 846 2385 40 338 46 1119 11 1495 -81 893 -290
1696 -646 2485 -65 143 -226 466 -238 475 -3 3 -17 26 -31 53 -13 26 -28 47
-33 47 -4 0 -5 5 -2 10 3 6 1 10 -5 10 -6 0 -8 6 -4 13 4 6 -2 4 -13 -6 -11
-9 -22 -15 -25 -12 -2 3 -5 -2 -5 -10 0 -8 5 -11 10 -8 6 4 8 -1 4 -11 -4 -11
-3 -15 4 -11 6 4 8 13 5 21 -3 7 -1 16 3 19 5 2 11 -5 15 -18 8 -31 8 -32 -6
-32 -14 0 -19 -53 -6 -61 5 -3 5 -11 -1 -18 -8 -9 -7 -13 4 -13 8 0 12 3 10 7
-2 4 2 7 10 7 9 0 11 -5 6 -11 -4 -6 -7 -30 -6 -53 1 -23 -2 -40 -6 -37 -4 2
-6 13 -4 24 2 11 -1 22 -7 26 -6 4 -5 9 3 15 9 6 4 8 -16 6 -20 -1 -29 2 -27
11 1 8 -2 11 -8 7 -13 -8 16 -45 33 -42 5 1 11 -10 12 -24 2 -34 14 -51 28
-42 7 3 4 -3 -7 -15 -10 -12 -24 -19 -30 -15 -7 4 -6 1 1 -8 9 -11 9 -19 2
-26 -6 -6 -5 -10 5 -10 9 0 13 8 10 20 -2 11 0 17 4 13 8 -9 10 -146 1 -140
-3 2 -5 19 -4 38 1 19 -2 33 -6 30 -5 -2 -6 -23 -4 -45 3 -29 1 -38 -8 -33 -9
5 -9 3 1 -7 6 -7 12 -17 12 -22 0 -4 -6 -5 -12 -1 -10 6 -10 4 0 -7 14 -15 16
-33 3 -25 -5 4 -4 -5 2 -18 8 -17 14 -21 19 -13 5 7 7 4 5 -8 -1 -11 -7 -27
-12 -35 -5 -8 -11 -24 -12 -35 -2 -16 -1 -17 6 -5 5 8 7 19 4 25 -4 5 -2 7 2
2 11 -10 14 -48 3 -41 -4 3 -8 0 -8 -6 0 -6 -4 -8 -10 -5 -16 10 -11 -1 7 -16
9 -8 14 -9 10 -3 -3 6 0 11 8 11 9 0 11 -5 6 -11 -4 -6 -7 -49 -6 -96 2 -55
-1 -78 -6 -65 -7 15 -7 11 -3 -12 3 -18 0 -34 -6 -38 -7 -4 -8 -11 -1 -18 5
-7 8 -27 6 -44 -1 -18 1 -30 6 -28 4 3 11 0 15 -6 4 -8 3 -9 -4 -5 -7 4 -12 2
-12 -4 0 -6 -5 -8 -12 -4 -7 5 -8 3 -2 -7 14 -22 16 -101 2 -93 -7 5 -8 3 -2
-7 13 -20 14 -100 1 -92 -6 4 -7 1 -1 -8 11 -19 13 -119 1 -112 -4 3 -3 -4 4
-15 10 -16 10 -24 1 -35 -9 -11 -9 -14 3 -14 8 0 12 3 10 7 -2 3 0 12 4 19 5
7 8 -7 7 -32 -1 -25 -4 -43 -8 -40 -5 2 -8 -1 -8 -6 0 -6 5 -11 12 -11 6 0 8
-3 5 -6 -4 -4 -13 -1 -21 5 -11 10 -14 9 -12 -1 1 -7 4 -17 7 -23 12 -20 8
-115 -5 -108 -6 3 -6 1 2 -8 6 -7 12 -17 12 -22 0 -4 -6 -5 -12 -1 -10 6 -10
4 -3 -7 12 -16 13 -39 2 -56 -4 -6 -3 -14 3 -18 15 -9 13 -38 -2 -29 -10 5
-10 4 -1 -6 6 -7 9 -20 6 -29 -4 -9 -3 -13 1 -10 4 4 9 17 11 29 7 36 13 34
11 -4 0 -19 -4 -32 -8 -29 -5 2 -8 0 -8 -6 0 -5 6 -12 13 -14 10 -4 10 -6 0
-6 -7 -1 -13 -9 -13 -18 0 -15 2 -16 10 -3 5 8 10 10 10 4 0 -17 -25 -35 -36
-27 -5 4 -4 2 3 -6 6 -7 9 -21 6 -30 -4 -13 -3 -14 5 -1 6 8 8 19 5 25 -4 5
-2 7 2 2 11 -10 14 -48 3 -41 -4 3 -8 1 -8 -5 0 -5 6 -12 13 -14 10 -4 10 -6
0 -6 -7 -1 -13 -8 -13 -17 0 -8 -5 -12 -10 -9 -8 5 -8 11 -1 19 8 9 3 19 -17
37 -15 13 -24 20 -20 15 4 -5 2 -16 -5 -25 -10 -14 -10 -14 4 -3 13 10 19 9
29 -3 11 -13 8 -19 -11 -17 -3 1 -6 -5 -6 -13 0 -8 4 -12 8 -10 3 3 12 -1 18
-9 8 -10 8 -16 -2 -25 -8 -6 -16 -9 -19 -6 -2 3 -5 -2 -5 -10 0 -8 3 -13 5
-10 3 3 11 0 18 -6 10 -8 12 -6 9 10 -2 12 0 19 5 16 5 -3 7 3 5 13 -2 10 1
25 5 32 6 10 8 4 6 -15 -1 -17 -5 -36 -9 -43 -5 -7 -3 -12 5 -12 7 0 1 -8 -12
-17 -14 -10 -28 -17 -31 -16 -3 1 -6 -5 -6 -13 0 -7 3 -12 5 -9 3 3 11 0 17
-5 9 -8 12 -5 11 11 -1 14 6 23 17 25 18 2 18 2 1 -17 -13 -15 -14 -19 -3 -19
8 0 10 -3 4 -8 -5 -4 -17 -21 -26 -39 -17 -31 -10 -53 16 -53 5 0 3 5 -5 10
-13 9 -13 10 0 10 10 0 11 3 3 8 -9 5 -9 12 0 29 10 18 12 8 12 -62 0 -46 -3
-81 -7 -79 -3 2 -5 15 -4 27 2 14 -2 24 -10 24 -7 0 -11 -4 -8 -9 3 -5 7 -20
10 -34 3 -19 1 -24 -8 -18 -10 6 -10 5 0 -8 9 -12 10 -18 2 -23 -7 -4 -8 -11
-2 -18 5 -7 8 -20 7 -30 -2 -9 0 -15 5 -12 4 2 6 18 5 33 -1 18 3 29 11 29 7
0 10 -5 6 -11 -3 -6 -7 -23 -8 -37 -2 -22 11 -37 69 -85 169 -138 355 -339
453 -489 42 -64 50 -85 34 -85 -9 0 -14 13 -12 31 1 3 -5 6 -13 6 -9 0 -4 -15
16 -43 57 -83 4 -32 -61 58 -329 457 -865 818 -1577 1062 l-133 45 -11 -42
c-56 -215 -235 -763 -349 -1067 -461 -1235 -1149 -2594 -2017 -3983 -207 -332
-254 -400 -269 -385 -50 54 -639 1024 -866 1428 -14 25 -55 97 -90 160 -259
460 -627 1189 -838 1660 -50 113 -98 219 -105 235 -38 84 -58 130 -59 135 -1
3 -21 52 -45 110 -97 233 -100 240 -97 251 0 3 -5 13 -12 22 -8 9 -10 22 -6
28 4 8 3 9 -4 5 -8 -4 -12 0 -12 11 0 11 -5 24 -12 31 -7 7 -9 12 -5 12 4 0 2
10 -5 23 -13 24 -19 43 -21 69 -1 9 -5 14 -9 12 -4 -3 -8 -2 -9 3 -1 18 -9 41
-29 93 -12 30 -22 61 -23 68 0 6 -3 12 -7 12 -6 0 -8 7 -12 49 -1 11 -6 17
-10 15 -7 -5 -12 18 -9 39 0 4 -4 7 -11 7 -6 0 -8 3 -5 7 4 3 0 17 -9 31 -11
17 -12 22 -3 16 11 -6 12 -5 2 8 -7 8 -9 19 -5 23 4 5 1 5 -7 0 -11 -6 -13 -3
-9 13 4 14 2 20 -5 15 -6 -4 -8 0 -4 10 4 10 1 17 -5 17 -6 0 -8 3 -5 7 4 3 1
13 -6 21 -10 13 -9 14 3 7 13 -8 13 -6 2 8 -8 9 -10 22 -6 28 4 7 3 10 -2 6
-5 -3 -14 6 -21 19 -6 13 -7 21 -2 18 5 -3 0 11 -11 31 -11 20 -15 33 -8 29 7
-4 4 3 -7 16 -12 14 -14 20 -5 15 9 -5 7 1 -5 15 -12 14 -14 20 -5 15 13 -8
13 -6 2 8 -8 9 -11 21 -8 26 4 5 -1 14 -10 19 -10 6 -15 16 -11 26 4 9 2 16
-4 16 -6 0 -7 5 -4 10 3 6 0 10 -7 10 -11 0 -10 2 0 9 11 7 10 9 -3 15 -9 3
-13 11 -10 16 4 6 1 18 -7 27 -9 12 -9 15 -1 9 9 -5 11 -2 7 8 -3 9 -11 16
-16 16 -6 0 -4 8 3 17 8 9 9 14 3 10 -7 -4 -15 0 -18 9 -4 10 -2 13 7 9 6 -4
3 1 -7 9 -15 12 -16 16 -5 16 10 1 9 3 -4 11 -9 6 -15 15 -11 20 3 5 0 17 -8
26 -7 9 -8 14 -2 10 8 -4 8 3 0 28 -6 18 -15 31 -21 27 -5 -3 -4 2 4 11 8 10
9 17 3 17 -6 0 -9 9 -7 20 3 13 0 18 -7 14 -7 -5 -9 0 -6 14 9 34 -7 36 -67 8
-30 -14 -55 -22 -55 -19 0 3 -7 0 -15 -7 -8 -7 -15 -9 -15 -4 0 5 -5 2 -11 -6
-9 -12 -10 -12 -5 3 3 10 6 27 6 37 0 11 20 34 45 53 24 19 41 38 37 43 -4 5
0 3 9 -4 14 -10 18 -10 23 3 3 9 10 13 16 10 6 -3 13 1 16 9 3 9 9 14 13 12 3
-2 7 13 7 35 1 31 -1 36 -10 23 -10 -13 -12 -9 -12 21 0 33 1 35 13 19 13 -17
13 -17 10 6 -3 14 0 31 6 38 6 7 6 12 1 10 -5 -2 -10 2 -11 7 -2 6 1 10 6 10
5 0 13 4 18 8 4 5 1 7 -7 5 -8 -2 -14 4 -15 12 -1 8 -7 14 -14 12 -9 -2 -11 3
-7 13 3 9 6 21 6 26 0 6 4 8 8 5 4 -2 8 15 8 39 0 34 -3 41 -13 33 -8 -7 -13
-7 -13 0 0 15 26 33 36 24 4 -4 3 0 -3 8 -6 8 -9 23 -8 33 2 9 0 15 -4 13 -4
-3 -7 15 -7 39 0 28 4 42 10 38 6 -4 4 2 -5 13 -17 21 -18 32 -5 53 7 10 6 12
-4 6 -8 -5 -11 -3 -8 6 3 8 10 13 15 12 7 -1 10 101 3 117 -1 3 -2 9 -1 13 1
5 -4 5 -10 1 -7 -4 -10 -2 -7 7 3 8 12 13 19 11 8 -2 11 0 7 4 -4 4 -2 14 5
23 10 14 10 14 -3 4 -14 -11 -16 -3 -17 63 -1 67 1 73 16 62 15 -12 15 -11 1
6 -8 11 -15 20 -15 21 0 1 7 10 15 21 14 18 14 18 -3 5 -15 -12 -17 -11 -14 5
1 11 6 24 10 31 4 6 3 15 -3 18 -7 4 -7 11 -2 18 12 16 8 63 -7 80 -9 11 -8
17 4 27 8 7 15 18 14 24 0 7 -2 6 -6 -2 -2 -6 -9 -9 -14 -6 -6 3 -6 11 2 20 6
7 15 12 19 9 4 -3 14 3 21 12 12 15 12 16 -1 8 -27 -17 -37 -13 -37 11 0 13 3
21 8 19 4 -3 11 -1 14 5 4 6 1 9 -6 8 -9 -2 -13 15 -13 57 -1 33 -4 65 -8 71
-10 16 3 26 17 14 8 -7 12 -5 12 5 0 7 -5 13 -10 12 -5 -1 -10 28 -11 65 -2
50 1 65 9 58 8 -7 12 -5 12 5 0 7 -5 13 -11 12 -16 -3 -13 36 4 58 14 18 13
19 -1 7 -18 -13 -29 -7 -29 17 0 14 2 14 11 1 9 -13 10 -13 6 2 -3 9 -3 19 1
22 15 15 9 34 -9 31 -11 -2 -19 2 -19 10 0 8 8 12 19 10 14 -3 18 1 14 12 -4
10 -8 11 -13 3 -5 -8 -9 -7 -13 4 -6 15 4 21 27 17 5 -1 4 4 -3 13 -8 10 -9
16 -1 21 8 5 8 11 1 19 -6 7 -8 16 -4 19 6 7 11 57 6 57 -2 0 -8 -10 -13 -22
-8 -20 -9 -18 -8 12 1 19 -2 43 -6 52 -6 14 -4 16 12 13 17 -3 20 1 15 18 -2
12 -5 27 -5 34 -1 7 -5 10 -10 7 -4 -3 -8 5 -8 18 0 16 3 19 9 10 5 -8 8 5 7
32 0 24 -4 42 -8 40 -4 -3 -8 5 -8 18 0 15 3 19 8 11 4 -7 8 7 8 32 0 24 -4
41 -9 38 -6 -3 -7 0 -5 8 3 8 10 13 16 12 10 -2 11 14 1 32 -3 6 -5 42 -4 80
1 39 -1 75 -5 80 -7 12 -7 66 1 80 5 10 4 52 -1 58 -2 1 -4 18 -5 37 -1 23 5
43 19 60 l21 25 -22 -19 c-13 -11 -23 -14 -23 -8 0 6 4 13 9 16 5 4 8 14 6 24
-1 9 3 24 9 32 9 13 9 13 -6 2 -15 -12 -16 -10 -13 20 2 18 4 33 5 33 1 0 3 8
5 17 2 10 0 16 -3 15 -4 -1 -7 3 -7 8 0 6 3 9 6 8 11 -4 2 98 -9 109 -9 9 -8
17 6 32 9 11 11 16 3 11 -9 -5 -12 -3 -9 6 3 8 10 14 16 14 5 0 13 3 17 6 3 4
-2 6 -12 5 -10 0 -18 4 -18 9 0 6 3 9 6 8 7 -2 6 38 -2 52 -5 9 -5 31 1 38 1
1 3 10 5 20 3 15 1 16 -11 6 -8 -7 -14 -7 -14 -1 0 15 26 33 36 24 4 -4 3 0
-4 9 -9 12 -9 19 1 29 10 12 9 12 -4 2 -15 -11 -16 -8 -15 25 1 21 5 44 10 51
4 7 4 11 -1 10 -4 -2 -8 2 -8 7 0 6 3 9 6 8 3 -1 6 4 6 12 0 8 -4 12 -8 9 -4
-2 -10 0 -14 6 -4 6 -10 8 -14 6 -10 -6 -8 -662 2 -672 4 -4 7 -12 7 -18 0 -6
-5 -4 -10 4 -8 12 -10 11 -7 -5 1 -11 6 -26 11 -33 5 -8 3 -24 -4 -38 -10 -18
-10 -27 -1 -38 8 -10 9 -16 2 -21 -7 -4 -9 -37 -5 -93 3 -48 7 -148 8 -222 1
-75 6 -142 11 -150 5 -7 4 -11 -1 -8 -11 7 -16 -78 -11 -194 1 -33 -1 -54 -7
-51 -5 4 -6 1 -2 -5 3 -6 1 -14 -5 -18 -8 -4 -7 -9 2 -15 8 -4 14 -22 14 -38
0 -16 -3 -27 -7 -24 -5 2 -4 -6 1 -19 4 -13 7 -60 6 -105 -1 -54 1 -80 8 -76
6 4 7 1 1 -8 -11 -18 -13 -488 -2 -495 4 -3 8 -11 8 -17 0 -8 -3 -7 -9 2 -5 8
-8 -85 -8 -222 1 -130 5 -231 9 -224 9 14 6 -22 -3 -38 -7 -13 -6 -147 2 -160
11 -19 4 -260 -9 -280 -11 -19 -13 -17 -16 23 -1 9 -5 24 -11 32 -7 12 -6 13
6 3 13 -10 15 -7 15 22 0 29 -2 32 -15 22 -13 -10 -14 -10 -5 3 6 8 10 32 9
53 -1 21 2 40 7 43 4 3 8 10 8 16 0 6 -6 6 -15 -2 -13 -11 -14 -9 0 16 8 16
11 33 6 38 -5 6 -5 20 0 31 12 32 10 38 -8 24 -10 -8 -14 -9 -10 -2 4 6 3 15
-3 18 -8 5 -7 11 1 21 6 7 15 11 20 8 5 -3 9 2 9 11 0 9 -4 14 -9 10 -6 -3 -6
6 -1 25 5 17 5 32 0 35 -5 3 -6 13 -3 22 5 12 3 14 -8 8 -8 -4 -11 -5 -7 0 4
4 3 14 -2 20 -7 8 -4 18 10 30 23 20 28 44 6 26 -11 -10 -14 -9 -12 1 1 7 5
19 10 26 11 18 4 134 -8 151 -8 11 -8 13 1 8 8 -5 12 13 12 68 0 53 -3 74 -11
69 -7 -5 -8 -3 -2 7 12 20 16 51 5 44 -5 -3 -13 -1 -16 5 -4 6 -1 9 5 8 17 -4
23 42 8 60 -10 12 -10 14 0 8 8 -5 12 1 12 19 0 18 -4 24 -12 19 -7 -4 -10 -4
-6 1 4 4 3 14 -4 22 -6 8 -7 13 -2 12 21 -4 35 2 29 11 -4 6 -11 7 -17 4 -6
-4 -8 -2 -4 4 3 6 2 14 -4 17 -8 5 -8 11 -1 19 6 7 7 17 3 21 -4 5 -1 5 6 1 8
-5 12 1 12 19 0 18 -4 24 -12 19 -10 -6 -10 -5 -1 7 10 12 10 18 0 29 -6 7 -7
10 -1 7 11 -6 12 91 1 110 -4 5 -3 13 0 17 10 10 14 48 5 42 -4 -2 -8 4 -9 14
-1 11 2 22 8 25 14 9 11 27 -3 19 -7 -4 -10 -4 -6 1 4 4 2 15 -5 24 -11 14
-10 14 6 2 18 -15 24 -2 6 16 -8 8 -8 13 0 17 6 4 11 12 11 17 0 6 -3 8 -7 6
-5 -3 -8 12 -9 34 0 22 3 34 8 26 5 -8 8 -7 8 5 0 9 -4 20 -10 23 -5 3 -10 12
-10 18 0 7 4 6 11 -3 8 -12 9 -11 6 5 -2 11 -9 19 -17 17 -11 -3 -11 0 -1 12
8 10 9 16 1 21 -8 5 -8 11 -1 19 7 9 7 16 -2 25 -9 10 -9 12 3 9 11 -2 14 8
15 44 0 35 -2 44 -11 37 -8 -7 -14 -6 -19 1 -4 6 -1 9 6 8 6 -2 14 3 17 11 2
8 0 11 -5 8 -5 -3 -10 0 -10 8 0 11 4 12 14 4 9 -8 13 -8 13 -1 0 6 -5 14 -10
17 -7 4 -7 13 -1 24 7 12 6 24 -4 38 -8 11 -11 23 -8 27 9 8 15 35 14 61 0 16
2 17 9 5 8 -12 10 -11 10 7 0 17 -5 21 -21 18 -12 -3 -19 -2 -15 2 3 3 0 13
-7 21 -9 12 -9 14 0 9 21 -13 34 27 17 51 -8 11 -10 23 -5 26 5 3 7 19 6 36
-1 17 1 33 6 36 5 3 9 23 9 45 0 22 -4 38 -9 35 -5 -3 -7 -19 -6 -36 1 -17 -1
-32 -5 -35 -4 -2 -6 8 -5 23 1 15 -3 33 -9 41 -8 11 -8 13 1 8 6 -4 15 -3 18
3 9 15 12 121 3 126 -4 3 -4 15 1 27 5 12 5 31 1 42 -4 11 -6 30 -3 43 2 13 0
21 -5 18 -5 -3 -9 1 -9 9 0 8 4 13 8 12 4 -1 7 3 7 8 0 6 -5 9 -11 7 -7 -2 -9
0 -5 4 4 4 3 13 -3 20 -7 8 -6 14 2 20 7 4 9 3 5 -4 -3 -6 -2 -13 4 -17 14 -9
13 48 -2 63 -7 7 -8 12 -4 12 5 0 3 7 -4 16 -11 12 -11 15 1 12 11 -2 14 11
15 57 0 33 -3 65 -8 72 -5 7 -5 14 2 18 5 3 10 11 10 16 0 6 -4 8 -9 4 -5 -3
-13 -1 -16 5 -4 6 -1 9 5 8 17 -4 23 42 8 60 -10 12 -10 14 0 8 8 -5 12 1 12
19 0 18 -4 24 -12 19 -10 -6 -10 -5 -1 8 7 8 9 19 5 23 -4 5 -1 5 7 0 9 -5 12
-3 9 6 -3 8 -12 13 -19 11 -11 -3 -11 -1 -2 9 10 10 9 17 -5 33 -16 20 -16 20
1 7 20 -15 23 -2 5 18 -10 11 -10 13 0 7 7 -5 12 -1 12 9 0 9 -4 14 -10 10 -5
-3 -3 5 4 19 7 13 11 38 10 55 -1 17 2 29 6 26 5 -3 11 1 13 7 4 10 6 10 6 1
1 -7 6 -13 12 -13 6 0 9 6 6 14 -3 8 2 20 11 28 15 11 15 11 5 -3 -10 -13 -10
-16 1 -16 8 0 13 7 11 16 -1 9 2 22 8 29 12 16 11 15 -43 -17z m-5 -70 c3 -5
1 -12 -5 -16 -5 -3 -10 1 -10 9 0 18 6 21 15 7z m0 -83 c-2 -24 1 -48 6 -54 6
-7 4 -15 -3 -22 -11 -8 -14 4 -15 59 0 38 2 67 6 64 5 -2 7 -24 6 -47z m7
-122 c-7 -10 -8 -31 -2 -38 8 -11 6 -39 -5 -48 -11 -9 -13 -1 -13 43 1 37 5
54 15 54 7 0 9 -5 5 -11z m-7 -137 c1 -11 -1 -22 -5 -24 -3 -2 -6 9 -6 25 0
33 9 32 11 -1z m10 -99 c1 -22 -4 -45 -10 -50 -10 -8 -13 3 -12 50 1 68 19 68
22 0z m-59 -4 c0 -14 -3 -23 -7 -20 -6 3 -6 22 0 42 3 10 7 -2 7 -22z m57
-100 c-10 -15 -12 -59 -4 -71 10 -14 8 -35 -4 -35 -6 0 -10 31 -11 70 -1 57 2
68 12 59 8 -6 11 -16 7 -23z m-6 -151 c0 -8 -4 -12 -9 -9 -5 3 -6 10 -3 15 9
13 12 11 12 -6z m-50 -40 c0 -8 -4 -12 -9 -9 -5 3 -6 10 -3 15 9 13 12 11 12
-6z m48 -14 c-3 -5 -1 -12 3 -15 8 -4 9 -56 2 -63 -6 -7 -6 -69 0 -78 4 -5 6
-41 5 -80 -1 -38 2 -75 7 -81 5 -7 2 -16 -6 -23 -11 -9 -13 -3 -13 41 0 29 -3
94 -6 145 -5 60 -3 94 4 98 7 5 6 11 -2 21 -11 13 -6 44 6 44 4 0 4 -4 0 -9z
m-48 -106 c0 -8 -4 -12 -9 -9 -5 3 -6 10 -3 15 9 13 12 11 12 -6z m54 -306
c-9 -23 -9 -22 -8 8 1 18 6 28 10 24 4 -4 3 -18 -2 -32z m6 -89 c-2 -23 -10
-17 -12 10 -1 10 2 17 6 14 4 -2 7 -13 6 -24z m5 -96 c2 -7 -1 -14 -6 -15 -5
-2 -10 6 -11 19 -2 22 10 19 17 -4z m-12 -79 c0 -5 -5 -3 -10 5 -5 8 -10 20
-10 25 0 6 5 3 10 -5 5 -8 10 -19 10 -25z m-46 -51 c3 -8 2 -12 -4 -9 -6 3
-10 10 -10 16 0 14 7 11 14 -7z m55 -10 c-7 -8 -7 -14 1 -19 8 -5 8 -11 1 -19
-6 -7 -8 -15 -5 -18 2 -3 -2 -8 -11 -11 -16 -7 -21 8 -6 17 5 4 7 19 5 34 -3
21 -1 29 11 29 10 0 12 -4 4 -13z m6439 -35 c-10 -7 -10 -9 2 -10 12 0 12 -2
1 -6 -11 -5 -11 -7 0 -15 12 -8 11 -9 -1 -6 -8 3 -15 16 -15 30 -1 19 2 25 12
21 12 -5 12 -7 1 -14z m-6439 -125 c-14 -18 -24 -11 -15 11 3 9 11 13 16 10 8
-5 7 -11 -1 -21z m-3 -115 c0 -32 -2 -56 -5 -53 -3 3 -6 32 -7 65 0 32 2 56 5
53 3 -3 6 -32 7 -65z m0 -103 c-1 -19 -4 -37 -7 -40 -4 -5 -5 42 0 67 4 21 9
2 7 -27z m6451 -61 c0 -8 -4 -12 -9 -9 -5 3 -6 10 -3 15 9 13 12 11 12 -6z
m-6451 -100 c-1 -52 -5 -97 -8 -100 -3 -3 -5 41 -4 99 0 57 4 102 7 100 4 -2
6 -46 5 -99z m-1 -124 c3 -5 2 -12 -3 -15 -5 -3 -9 1 -9 9 0 17 3 19 12 6z
m10 -80 c1 -17 -2 -34 -7 -37 -5 -3 -4 -11 2 -19 8 -9 8 -15 0 -20 -6 -3 -7
-11 -4 -17 4 -6 3 -8 -3 -5 -6 4 -10 38 -10 77 1 70 16 85 22 21z m6451 -83
c-1 -13 -6 -22 -9 -20 -7 2 -7 10 0 30 8 20 13 14 9 -10z m-6455 -61 c-5 -7
-8 -47 -7 -90 1 -43 -1 -80 -5 -83 -7 -4 -9 176 -2 189 2 4 9 5 14 1 6 -4 6
-10 0 -17z m6455 8 c-1 -8 -5 -17 -8 -21 -5 -4 -4 16 1 34 3 9 9 -1 7 -13z
m-6509 -70 c0 -8 -4 -12 -9 -9 -5 3 -6 10 -3 15 9 13 12 11 12 -6z m6509 -39
c0 -14 -3 -23 -7 -20 -6 3 -6 22 0 42 3 10 7 -2 7 -22z m-6509 -21 c0 -8 -4
-12 -9 -9 -5 3 -6 10 -3 15 9 13 12 11 12 -6z m6509 -44 c0 -16 -4 -27 -7 -25
-4 2 -6 12 -4 22 2 9 4 20 4 25 1 4 3 7 5 7 2 0 3 -13 2 -29z m-6451 -97 c1
-24 -4 -49 -10 -54 -9 -7 -12 8 -14 58 -2 54 0 65 11 54 7 -7 13 -33 13 -58z
m6451 17 c-2 -44 -11 -45 -11 -1 0 21 2 37 6 34 3 -2 6 -17 5 -33z m-6509 4
c0 -8 -4 -12 -9 -9 -5 3 -6 10 -3 15 9 13 12 11 12 -6z m0 -40 c0 -8 -4 -12
-9 -9 -5 3 -6 10 -3 15 9 13 12 11 12 -6z m6508 -55 c0 -16 -2 -27 -5 -24 -3
3 -5 19 -6 35 0 16 2 26 5 23 3 -3 6 -18 6 -34z m-6460 -131 c-3 -12 -1 -27 3
-33 11 -18 11 -35 -1 -45 -9 -7 -12 3 -11 37 1 53 2 62 8 62 3 0 3 -10 1 -21z
m6460 -57 c-3 -3 -11 0 -18 7 -9 10 -8 11 6 5 10 -3 15 -9 12 -12z m-6449 -78
c-1 -13 -6 -27 -10 -31 -5 -4 -6 -3 -2 4 3 6 2 14 -4 18 -15 9 -12 32 3 32 8
0 13 -10 13 -23z m6449 -82 c-1 -15 -5 -33 -9 -40 -4 -7 -2 -12 5 -12 7 0 10
-3 6 -6 -10 -10 -28 7 -20 19 4 7 8 23 9 37 2 27 2 30 7 30 2 0 3 -13 2 -28z
m-6449 -17 c-1 -8 -5 -17 -8 -21 -5 -4 -4 16 1 34 3 9 9 -1 7 -13z m0 -61 c1
-9 0 -13 -4 -10 -3 4 -7 14 -8 22 -1 9 0 13 4 10 3 -4 7 -14 8 -22z m0 -96
c-3 -19 -25 -55 -26 -42 0 6 3 14 8 18 4 4 8 12 8 17 2 15 4 19 8 19 2 0 3 -6
2 -12z m2768 -11253 c9 -14 15 -25 13 -25 -2 0 -13 11 -25 25 -12 14 -18 25
-13 25 5 0 16 -11 25 -25z m-359 -6 c11 -16 1 -19 -13 -3 -7 8 -8 14 -3 14 5
0 13 -5 16 -11z m-28 -49 c1 -10 -2 -22 -7 -25 -5 -3 -7 0 -4 8 3 8 0 18 -5
22 -6 3 -9 11 -5 16 8 13 17 4 21 -21z m856 -494 c4 4 14 -10 22 -31 16 -38
15 -52 -4 -41 -6 4 -7 14 -4 22 7 20 -18 38 -30 21 -6 -9 -7 -8 -6 3 3 27 -1
40 -11 40 -5 0 -6 -8 -3 -17 6 -16 5 -16 -8 -3 -26 28 -44 54 -31 46 7 -4 15
-1 18 9 5 13 11 8 28 -20 12 -20 25 -33 29 -29z m49 -88 c-8 -8 -9 -4 -5 13 4
13 8 18 11 10 2 -7 -1 -18 -6 -23z m-1402 -22 c0 -2 -8 -10 -17 -17 -16 -13
-17 -12 -4 4 13 16 21 21 21 13z m1464 -42 c3 -8 2 -12 -4 -9 -6 3 -10 10 -10
16 0 14 7 11 14 -7z"/>
<path d="M13091 8034 c0 -11 3 -14 6 -6 3 7 2 16 -1 19 -3 4 -6 -2 -5 -13z"/>
<path d="M15004 23114 c3 -9 6 -21 7 -27 0 -7 4 -3 8 8 9 22 5 35 -11 35 -5 0
-7 -7 -4 -16z"/>
<path d="M10934 23093 c-16 -49 -25 -64 -37 -57 -9 5 -9 4 0 -6 6 -7 10 -18 9
-24 -2 -6 -1 -8 1 -3 3 4 9 5 13 2 5 -3 12 0 16 6 4 7 3 9 -4 5 -6 -3 -13 -2
-17 4 -3 5 0 10 8 10 21 0 41 26 27 35 -8 5 -8 10 0 20 8 9 8 15 0 20 -5 3
-13 -2 -16 -12z"/>
<path d="M10904 22943 c0 -20 2 -31 4 -24 2 6 8 8 14 5 6 -4 8 2 3 16 -5 14
-3 20 3 16 6 -3 9 -34 8 -71 -2 -47 0 -62 8 -56 6 5 11 38 11 73 0 56 -3 63
-20 63 -11 -1 -22 3 -25 7 -4 4 -6 -9 -6 -29z"/>
<path d="M10915 22900 c-4 -6 -12 -7 -18 -4 -9 5 -9 4 0 -6 6 -7 9 -20 6 -29
-3 -10 0 -9 8 4 13 20 21 45 14 45 -2 0 -7 -5 -10 -10z"/>
<path d="M15069 22828 c-5 -18 -6 -38 -1 -34 7 8 12 36 6 36 -2 0 -4 -1 -5 -2z"/>
<path d="M9845 22681 c-3 -5 -2 -12 3 -15 5 -3 9 1 9 9 0 17 -3 19 -12 6z"/>
<path d="M9919 22653 c-13 -16 -12 -17 4 -4 16 13 21 21 13 21 -2 0 -10 -8
-17 -17z"/>
<path d="M9849 22538 c-6 -20 -6 -39 0 -42 4 -3 7 6 7 20 0 20 -4 32 -7 22z"/>
<path d="M15084 22406 c1 -8 5 -18 8 -22 4 -3 5 1 4 10 -1 8 -5 18 -8 22 -4 3
-5 -1 -4 -10z"/>
<path d="M10915 22380 c-4 -6 -12 -7 -18 -4 -9 5 -9 4 0 -6 6 -7 9 -20 6 -29
-4 -12 -3 -13 5 -2 7 9 12 10 16 2 4 -6 5 -11 1 -11 -3 0 0 -10 6 -22 l12 -23
-24 20 c-15 13 -19 14 -11 3 9 -11 10 -18 2 -23 -6 -4 -9 -12 -7 -18 2 -7 -3
-21 -12 -32 -15 -19 -15 -19 3 -5 18 14 19 13 13 -5 -7 -18 -6 -19 6 -3 8 10
17 15 20 12 3 -3 4 2 2 13 -1 10 -8 17 -15 15 -6 -1 -10 3 -7 10 2 7 9 12 15
11 16 -4 35 34 22 42 -6 4 -8 10 -5 15 3 5 1 11 -5 15 -6 4 -8 10 -5 15 3 5 1
11 -4 14 -5 4 -12 2 -16 -4z m12 -7 c-4 -3 -1 -13 6 -22 11 -14 10 -14 -5 -2
-16 12 -16 31 -1 31 4 0 3 -3 0 -7z"/>
<path d="M9857 22319 c4 -13 8 -18 11 -10 2 7 -1 18 -6 23 -8 8 -9 4 -5 -13z"/>
<path d="M9905 22321 c-3 -5 -2 -12 3 -15 5 -3 9 1 9 9 0 17 -3 19 -12 6z"/>
<path d="M15075 22030 c-18 -20 -18 -21 0 -38 18 -16 18 -16 6 1 -12 15 -11
20 4 37 10 11 16 20 13 20 -3 0 -13 -9 -23 -20z"/>
<path d="M9859 22035 c-1 -3 -2 -17 -3 -32 -1 -16 -4 -33 -8 -38 -3 -6 -1 -17
6 -26 9 -13 11 -5 11 42 0 52 -2 71 -6 54z"/>
<path d="M9852 21890 c-6 -10 -8 -21 -3 -24 5 -3 11 4 14 16 8 29 4 32 -11 8z"/>
<path d="M9915 21881 c-3 -5 -2 -12 3 -15 5 -3 9 1 9 9 0 17 -3 19 -12 6z"/>
<path d="M10886 21872 c-3 -5 1 -9 9 -9 8 0 12 4 9 9 -3 4 -7 8 -9 8 -2 0 -6
-4 -9 -8z"/>
<path d="M9859 21800 c-3 -19 -4 -25 -11 -35 -3 -6 0 -19 7 -29 12 -16 14 -13
12 28 -1 42 -5 60 -8 36z"/>
<path d="M10895 21781 c-3 -5 -2 -12 3 -15 5 -3 9 1 9 9 0 17 -3 19 -12 6z"/>
<path d="M9857 21695 c-4 -8 -3 -16 1 -19 4 -3 9 4 9 15 2 23 -3 25 -10 4z"/>
<path d="M10935 21639 c-4 -6 -5 -12 -2 -15 2 -3 7 2 10 11 7 17 1 20 -8 4z"/>
<path d="M9862 21590 c0 -14 2 -19 5 -12 2 6 2 18 0 25 -3 6 -5 1 -5 -13z"/>
<path d="M16261 21506 c-8 -10 -9 -16 -1 -21 5 -3 10 -5 11 -3 4 18 7 38 4 38
-1 0 -8 -6 -14 -14z"/>
<path d="M9855 21460 c3 -5 8 -10 11 -10 2 0 4 5 4 10 0 6 -5 10 -11 10 -5 0
-7 -4 -4 -10z"/>
<path d="M9857 21360 c-3 -11 -2 -22 2 -24 4 -3 8 6 9 20 2 29 -4 31 -11 4z"/>
<path d="M16250 21376 c0 -2 8 -10 18 -17 15 -13 16 -12 3 4 -13 16 -21 21
-21 13z"/>
<path d="M16280 21328 c6 -7 6 -16 0 -23 -7 -8 -5 -12 4 -12 16 0 15 23 -2 37
-9 7 -9 7 -2 -2z"/>
<path d="M10925 21299 c7 -22 7 -23 -11 -9 -19 14 -19 14 0 -7 10 -13 22 -20
26 -18 10 6 1 43 -12 51 -6 4 -7 -2 -3 -17z"/>
<path d="M9855 21301 c-3 -5 -2 -12 3 -15 5 -3 9 1 9 9 0 17 -3 19 -12 6z"/>
<path d="M10890 21276 c0 -2 8 -10 18 -17 15 -13 16 -12 3 4 -13 16 -21 21
-21 13z"/>
<path d="M16275 21251 c-3 -5 -2 -12 3 -15 5 -3 9 1 9 9 0 17 -3 19 -12 6z"/>
<path d="M16303 21243 c0 -10 4 -10 16 -1 9 7 18 13 20 15 2 1 -5 1 -16 0 -11
0 -20 -7 -20 -14z"/>
<path d="M10916 21225 c7 -18 6 -19 -12 -5 -18 14 -18 13 1 -9 21 -24 21 -27
2 -50 -9 -12 -9 -13 1 -7 6 4 12 3 12 -3 0 -5 -5 -13 -11 -16 -7 -5 -4 -13 8
-25 12 -12 20 -14 25 -6 4 6 5 -6 3 -26 -3 -20 -1 -39 3 -42 5 -3 9 0 10 7 0
7 3 21 5 32 6 26 -20 55 -41 47 -14 -5 -15 -3 -4 10 7 9 11 22 10 29 -2 8 3
13 10 11 9 -2 11 2 6 10 -5 7 -9 19 -11 27 -1 7 -7 19 -13 25 -8 8 -9 6 -4 -9z"/>
<path d="M9854 21219 c-3 -6 -1 -16 4 -21 8 -8 11 -5 9 11 -1 24 -3 25 -13 10z"/>
<path d="M16283 21185 c0 -6 6 -12 12 -12 6 0 12 6 12 12 0 6 -6 12 -12 12 -6
0 -12 -6 -12 -12z"/>
<path d="M9855 21141 c-3 -5 -2 -12 3 -15 5 -3 9 1 9 9 0 17 -3 19 -12 6z"/>
<path d="M15095 21101 c-3 -5 -2 -12 3 -15 5 -3 9 1 9 9 0 17 -3 19 -12 6z"/>
<path d="M10914 21079 c2 -13 -1 -31 -8 -39 -6 -8 -1 -6 12 4 18 16 20 22 10
35 -7 9 -14 18 -15 20 -2 3 -2 -6 1 -20z"/>
<path d="M16312 21060 c3 -8 1 -24 -4 -35 -8 -18 -8 -19 5 -3 8 10 18 14 23
10 4 -4 2 2 -6 13 -21 30 -23 31 -18 15z"/>
<path d="M9851 20916 c-8 -10 -8 -16 2 -24 10 -9 13 -6 13 13 0 29 0 29 -15
11z"/>
<path d="M15075 20921 c-3 -5 -2 -12 3 -15 5 -3 9 1 9 9 0 17 -3 19 -12 6z"/>
<path d="M16321 20887 c-8 -10 -7 -14 2 -14 8 0 14 6 14 14 0 7 -1 13 -2 13
-2 0 -8 -6 -14 -13z"/>
<path d="M9919 20873 c-13 -16 -12 -17 4 -4 9 7 17 15 17 17 0 8 -8 3 -21 -13z"/>
<path d="M9855 20840 c3 -5 8 -10 11 -10 2 0 4 5 4 10 0 6 -5 10 -11 10 -5 0
-7 -4 -4 -10z"/>
<path d="M15075 20821 c-3 -5 -2 -12 3 -15 5 -3 9 1 9 9 0 17 -3 19 -12 6z"/>
<path d="M16275 20811 c-3 -5 -2 -12 3 -15 5 -3 9 1 9 9 0 17 -3 19 -12 6z"/>
<path d="M16283 20745 c0 -6 6 -12 12 -12 6 0 12 6 12 12 0 6 -6 12 -12 12 -6
0 -12 -6 -12 -12z"/>
<path d="M16270 20715 c0 -2 6 -8 13 -14 10 -8 14 -7 14 2 0 8 -6 14 -14 14
-7 0 -13 -1 -13 -2z"/>
<path d="M10940 20674 c0 -17 17 -36 24 -26 3 5 -1 15 -9 22 -8 7 -15 9 -15 4z"/>
<path d="M16293 20645 c0 -6 6 -12 12 -12 6 0 12 6 12 12 0 6 -6 12 -12 12 -6
0 -12 -6 -12 -12z"/>
<path d="M9919 20628 c-6 -20 -6 -39 0 -42 4 -3 7 6 7 20 0 20 -4 32 -7 22z"/>
<path d="M10950 20596 c0 -20 4 -35 8 -32 10 6 9 52 -1 62 -4 4 -7 -9 -7 -30z"/>
<path d="M16293 20565 c0 -6 6 -12 12 -12 6 0 12 6 12 12 0 6 -6 12 -12 12 -6
0 -12 -6 -12 -12z"/>
<path d="M15057 20501 c-9 -16 -14 -36 -11 -44 3 -9 1 -25 -5 -36 -6 -11 -7
-22 -2 -25 10 -7 9 -126 -2 -143 -4 -6 -3 -14 3 -18 10 -6 7 -45 -4 -64 -4 -5
-3 -12 2 -15 14 -8 9 -111 -5 -108 -17 3 -16 -13 1 -27 14 -12 17 -93 4 -107
-10 -10 18 -47 38 -50 9 -1 13 0 10 3 -3 4 -1 12 5 19 7 8 6 14 -2 20 -7 4 -9
3 -6 -3 4 -6 1 -16 -6 -21 -10 -9 -13 -4 -13 23 0 28 3 32 14 23 7 -6 12 -7
11 -2 -1 5 0 11 1 14 7 19 7 39 -1 34 -5 -3 -7 -9 -4 -14 3 -5 1 -11 -4 -14
-20 -13 -20 13 0 38 13 17 16 26 7 24 -7 -2 -12 3 -10 10 1 8 -2 11 -9 6 -7
-4 -10 -2 -7 7 3 8 10 13 15 12 5 -1 10 5 10 12 0 11 -4 12 -14 4 -16 -14 -17
3 -1 19 13 13 19 54 6 46 -9 -6 -10 -1 -10 49 -1 17 4 31 9 30 5 -1 10 5 10
12 0 10 -4 12 -12 5 -8 -6 -11 1 -11 25 0 29 2 32 16 22 13 -10 13 -10 3 4
-10 12 -10 18 0 29 10 12 9 12 -5 1 -11 -8 -18 -9 -18 -3 0 6 8 16 18 22 13 9
13 10 1 7 -12 -4 -16 2 -16 24 0 25 3 27 16 16 14 -10 14 -10 4 4 -10 12 -10
18 0 29 9 10 9 11 0 6 -14 -8 -14 -5 -18 57 -2 32 0 36 14 25 13 -10 14 -10 4
1 -6 7 -9 20 -6 27 9 24 -2 15 -20 -15z m6 -91 c3 -11 1 -20 -4 -20 -5 0 -9 9
-9 20 0 11 2 20 4 20 2 0 6 -9 9 -20z m-6 -172 c-3 -8 -6 -5 -6 6 -1 11 2 17
5 13 3 -3 4 -12 1 -19z m0 -80 c-3 -7 -5 -2 -5 12 0 14 2 19 5 13 2 -7 2 -19
0 -25z m11 -44 c9 -17 9 -24 -1 -32 -9 -8 -12 -2 -13 24 0 19 0 33 1 31 1 -1
7 -12 13 -23z m-13 -75 c-4 -5 0 -18 8 -27 14 -15 14 -19 0 -37 -15 -20 -15
-19 -8 3 4 13 2 29 -5 37 -11 13 -7 35 6 35 3 0 2 -5 -1 -11z m2 -141 c-3 -8
-6 -5 -6 6 -1 11 2 17 5 13 3 -3 4 -12 1 -19z"/>
<path d="M9925 20481 c-3 -5 -2 -12 3 -15 5 -3 9 1 9 9 0 17 -3 19 -12 6z"/>
<path d="M16293 20445 c0 -6 6 -12 12 -12 6 0 12 6 12 12 0 6 -6 12 -12 12 -6
0 -12 -6 -12 -12z"/>
<path d="M9851 20296 c-8 -10 -8 -16 2 -24 10 -9 13 -6 13 13 0 29 0 29 -15
11z"/>
<path d="M9916 20278 c3 -5 10 -6 15 -3 13 9 11 12 -6 12 -8 0 -12 -4 -9 -9z"/>
<path d="M16283 20265 c0 -6 6 -12 12 -12 6 0 12 6 12 12 0 6 -6 12 -12 12 -6
0 -12 -6 -12 -12z"/>
<path d="M16256 20242 c-3 -5 1 -9 9 -9 8 0 12 4 9 9 -3 4 -7 8 -9 8 -2 0 -6
-4 -9 -8z"/>
<path d="M9924 20206 c1 -8 5 -18 8 -22 4 -3 5 1 4 10 -1 8 -5 18 -8 22 -4 3
-5 -1 -4 -10z"/>
<path d="M10945 20203 c2 -10 4 -24 4 -32 1 -8 4 -11 8 -7 12 12 11 35 -2 46
-10 9 -13 7 -10 -7z"/>
<path d="M16297 20203 c3 -7 6 -13 8 -13 2 0 5 6 8 13 3 8 -1 14 -8 14 -7 0
-11 -6 -8 -14z"/>
<path d="M12655 20170 c-3 -5 -1 -10 4 -10 6 0 11 5 11 10 0 6 -2 10 -4 10 -3
0 -8 -4 -11 -10z"/>
<path d="M9846 20131 c-4 -5 -2 -12 3 -15 5 -4 12 -2 15 3 4 5 2 12 -3 15 -5
4 -12 2 -15 -3z"/>
<path d="M16281 20086 c-8 -10 -8 -16 2 -24 10 -9 13 -6 13 13 0 29 0 29 -15
11z"/>
<path d="M16313 20085 c0 -8 4 -12 9 -9 5 3 6 10 3 15 -9 13 -12 11 -12 -6z"/>
<path d="M16290 20025 c5 -7 6 -16 2 -21 -4 -5 -3 -5 2 -1 15 12 15 34 0 34
-9 0 -11 -4 -4 -12z"/>
<path d="M9871 20014 c0 -11 3 -14 6 -6 3 7 2 16 -1 19 -3 4 -6 -2 -5 -13z"/>
<path d="M9916 19998 c3 -5 10 -6 15 -3 13 9 11 12 -6 12 -8 0 -12 -4 -9 -9z"/>
<path d="M9869 19978 c-5 -11 -4 -80 1 -83 3 -2 6 16 6 41 0 38 -3 52 -7 42z"/>
<path d="M16290 19945 c5 -7 6 -16 2 -21 -4 -5 -3 -5 2 -1 15 12 15 34 0 34
-9 0 -11 -4 -4 -12z"/>
<path d="M9945 19941 c-3 -5 -2 -12 3 -15 5 -3 9 1 9 9 0 17 -3 19 -12 6z"/>
<path d="M16266 19912 c-3 -5 1 -9 9 -9 8 0 12 4 9 9 -3 4 -7 8 -9 8 -2 0 -6
-4 -9 -8z"/>
<path d="M16295 19891 c-3 -5 -2 -12 3 -15 5 -3 9 1 9 9 0 17 -3 19 -12 6z"/>
<path d="M9871 19854 c0 -11 3 -14 6 -6 3 7 2 16 -1 19 -3 4 -6 -2 -5 -13z"/>
<path d="M16283 19863 c4 -3 1 -13 -6 -22 -11 -14 -10 -14 5 -2 16 12 16 31 1
31 -4 0 -3 -3 0 -7z"/>
<path d="M16303 19825 c0 -7 6 -12 14 -11 19 3 21 19 2 21 -9 2 -16 -3 -16
-10z"/>
<path d="M9869 19818 c-5 -18 -6 -38 -1 -34 7 8 12 36 6 36 -2 0 -4 -1 -5 -2z"/>
<path d="M16286 19768 c3 -5 10 -6 15 -3 13 9 11 12 -6 12 -8 0 -12 -4 -9 -9z"/>
<path d="M9764 19666 c-3 -8 -4 -23 -1 -33 3 -12 5 -8 6 10 1 19 5 26 13 21 7
-4 8 -3 4 4 -10 16 -15 15 -22 -2z"/>
<path d="M16286 19528 c3 -5 10 -6 15 -3 13 9 11 12 -6 12 -8 0 -12 -4 -9 -9z"/>
<path d="M16293 19495 c0 -8 4 -12 9 -9 5 3 6 10 3 15 -9 13 -12 11 -12 -6z"/>
<path d="M16280 19415 c0 -2 6 -8 13 -14 10 -8 14 -7 14 2 0 8 -6 14 -14 14
-7 0 -13 -1 -13 -2z"/>
<path d="M16283 19375 c0 -8 4 -12 9 -9 5 3 6 10 3 15 -9 13 -12 11 -12 -6z"/>
<path d="M16290 19340 c-6 -11 -8 -20 -6 -20 3 0 10 9 16 20 6 11 8 20 6 20
-3 0 -10 -9 -16 -20z"/>
<path d="M12735 8470 c11 -14 23 -27 27 -30 4 -3 8 -17 10 -30 2 -14 7 -30 11
-37 9 -14 40 -10 43 6 1 6 0 7 -2 2 -6 -12 -44 24 -44 42 0 7 -15 26 -32 43
-27 24 -29 25 -13 4z m65 -90 c0 -5 -2 -10 -4 -10 -3 0 -8 5 -11 10 -3 6 -1
10 4 10 6 0 11 -4 11 -10z"/>
<path d="M12810 8336 c0 -2 8 -10 18 -17 15 -13 16 -12 3 4 -13 16 -21 21 -21
13z"/>
<path d="M12872 8290 c13 -15 25 -26 27 -24 2 2 -1 9 -7 16 -6 7 -10 17 -9 22
1 5 -6 10 -16 12 -15 2 -14 -2 5 -26z"/>
<path d="M12855 8280 c10 -11 20 -20 23 -20 3 0 -3 9 -13 20 -10 11 -20 20
-23 20 -3 0 3 -9 13 -20z"/>
<path d="M12109 8263 c-13 -16 -12 -17 4 -4 9 7 17 15 17 17 0 8 -8 3 -21 -13z"/>
<path d="M12900 8226 c0 -2 8 -10 18 -17 15 -13 16 -12 3 4 -13 16 -21 21 -21
13z"/>
<path d="M12937 8220 c8 -9 9 -18 3 -25 -7 -8 -2 -19 15 -35 14 -13 25 -20 25
-15 0 4 8 1 18 -8 9 -8 20 -16 25 -16 4 -1 7 -3 7 -6 0 -3 0 -10 0 -17 0 -6
-10 -3 -22 8 l-22 19 20 -26 c10 -15 22 -22 25 -17 4 6 8 5 11 -3 3 -9 6 -8
11 5 5 11 3 15 -5 10 -7 -5 -9 -2 -5 9 5 14 -16 42 -32 42 -3 0 -5 3 -3 8 1 4
-2 6 -7 5 -5 -2 -8 0 -7 3 0 4 -7 16 -17 26 -9 11 -14 24 -10 29 5 5 4 6 -1 2
-5 -4 -16 -2 -25 4 -13 10 -14 10 -4 -2z m39 -56 c2 -14 0 -14 -17 1 -10 10
-16 22 -13 27 8 12 27 -6 30 -28z"/>
<path d="M12059 8203 c-13 -16 -12 -17 4 -4 9 7 17 15 17 17 0 8 -8 3 -21 -13z"/>
<path d="M12005 8180 c-3 -11 -11 -19 -17 -17 -6 1 -12 -9 -14 -23 -4 -23 -3
-23 19 8 13 17 27 29 31 25 4 -4 4 0 0 10 -8 22 -11 21 -19 -3z"/>
<path d="M12004 8138 l-19 -23 23 19 c21 18 27 26 19 26 -2 0 -12 -10 -23 -22z"/>
<path d="M11941 8095 c-1 -17 -3 -18 -12 -5 -8 12 -10 12 -7 1 6 -21 34 -22
52 -2 14 15 14 18 1 18 -8 0 -12 -4 -9 -8 2 -4 0 -10 -5 -13 -5 -4 -12 2 -14
11 -4 15 -5 15 -6 -2z"/>
<path d="M21179 1943 l-24 -28 28 24 c15 14 27 26 27 28 0 8 -8 1 -31 -24z"/>
</g>
</svg>
